<?xml version="1.0" standalone="no"?>
<!DOCTYPE svg PUBLIC "-//W3C//DTD SVG 1.1//EN" "http://www.w3.org/Graphics/SVG/1.1/DTD/svg11.dtd" >
<svg xmlns="http://www.w3.org/2000/svg" xmlns:xlink="http://www.w3.org/1999/xlink" version="1.1">
<metadata>
Created by FontForge 20161013 at Thu Apr 17 03:00:19 2014
 By ,,,
Copyright (C) 2014 by original authors @ fontello.com
</metadata>
<defs>
<font id="fontello" horiz-adv-x="1000" >
  <font-face 
    font-family="fontello"
    font-weight="400"
    font-stretch="normal"
    units-per-em="1000"
    panose-1="2 0 5 3 0 0 0 0 0 0"
    ascent="850"
    descent="-150"
    bbox="-1.06569 -242.953 1500 943.018"
    underline-thickness="0"
    underline-position="10"
    unicode-range="U+0021-C8911"
  />
<missing-glyph 
 />
    <glyph glyph-name=".notdef" 
 />
    <glyph glyph-name=".null" horiz-adv-x="0" 
 />
    <glyph glyph-name="nonmarkingreturn" horiz-adv-x="333" 
 />
    <glyph glyph-name="paste" unicode="!" 
d="M429 -79h500v358h-233q-22 0 -38 15t-15 38v232h-214v-643zM571 725v36q0 7 -5 12t-12 6h-393q-7 0 -13 -6t-5 -12v-36q0 -7 5 -13t13 -5h393q7 0 12 5t5 13zM714 350h167l-167 167v-167zM1000 279v-375q0 -23 -16 -38t-38 -16h-535q-23 0 -38 16t-16 38v89h-303
q-23 0 -38 16t-16 37v750q0 23 16 38t38 16h607q22 0 38 -16t15 -38v-183q12 -7 20 -15l228 -228q16 -16 27 -42t11 -50v1z" />
    <glyph glyph-name="clipboard" unicode="&#x22;" horiz-adv-x="707" 
d="M0 -150v904h225v-64h-161v-774h579v774h-161v64h225v-904h-707zM129 -21v31h31v-31h-31zM129 100v31h31v-31h-31zM129 221v31h31v-31h-31zM129 342v32h31v-32h-31zM129 463v32h31v-32h-31zM129 559v94h129v97q0 41 27 71t69 29t69 -30t28 -70q0 -56 -2 -97h129v-94h-449z
M225 -23v33h353v-33h-353zM225 98v33h353v-33h-353zM225 219v33h353v-33h-353zM225 340v34h353v-34h-353zM225 461v34h353v-34h-353zM322 721q0 -14 9 -22t23 -9t22 9t9 22t-9 24t-22 9t-23 -9t-9 -24z" />
    <glyph glyph-name="doc-new" unicode="#" horiz-adv-x="949" 
d="M0 -150v818l188 182h519v-348h-86v260h-369v-156h-166v-668h418v-88h-504zM373 57v162h209v207h160v-207h207v-162h-207v-207h-160v207h-209z" />
    <glyph glyph-name="layers" unicode="$" horiz-adv-x="928" 
d="M18 183l446 -112l447 112v-112l-447 -112l-446 112v112zM18 406l446 -112l447 112v-112l-447 -111l-446 111v112zM18 629l446 112l447 -112v-111l-447 -112l-446 112v111z" />
    <glyph glyph-name="popup-1" unicode="%" horiz-adv-x="885" 
d="M781 793q44 0 74 -31t30 -73v-522q0 -43 -30 -73t-74 -30h-103v-53q0 -42 -31 -73t-74 -31h-469q-44 0 -74 31t-30 73v469q0 44 31 74t73 31h52v104q0 42 31 73t73 30h521v1zM104 11h469v443q0 10 -8 18t-17 8h-444v-469zM781 168v521h-521v-156h288q31 0 54 -24t23 -55
v-286h156z" />
    <glyph glyph-name="down-micro" unicode="&#x26;" horiz-adv-x="471" 
d="M235 231l-235 236h471z" />
    <glyph glyph-name="down-dir" unicode="'" horiz-adv-x="529" 
d="M265 84l-265 530h529z" />
    <glyph glyph-name="down-fat" unicode="(" horiz-adv-x="820" 
d="M5 538q13 23 53 23h147v205q0 21 16 37t37 15h304q22 0 38 -15t15 -37v-205h147q40 0 53 -23t-7 -54l-363 -582q-1 -2 -5 -6t-12 -9t-18 -6t-18 5t-13 11l-4 5l-363 582q-21 32 -7 54z" />
    <glyph glyph-name="down-circle" unicode=")" 
d="M1000 349q0 -136 -67 -251t-182 -182t-251 -67t-251 67t-182 182t-67 251t67 251t182 182t251 67t251 -67t182 -182t67 -251zM500 163l232 233l-71 71l-161 -161l-161 161l-71 -71z" />
    <glyph glyph-name="soundcloud" unicode="*" 
d="M34 178q0 -4 -10 -4q-6 0 -10 4l-14 70l14 72q4 4 10 4q10 0 10 -4l16 -72zM136 140q0 -8 -12 -8t-12 8l-12 108l12 166q0 8 12 8t12 -8l14 -166zM238 142q0 -10 -14 -10t-14 8l-10 108l10 222q0 10 14 10t14 -10l12 -222zM340 142q0 -10 -16 -10t-16 10l-8 106l8 224
q0 10 16 10t16 -10l10 -224zM442 144q0 -12 -17 -12t-19 12l-6 104l6 256q4 14 18 14q18 0 18 -14l8 -256zM514 132q-14 0 -14 14v396q0 10 12 14q36 14 84 14q88 0 153 -58t73 -142q24 10 50 10q52 0 90 -37t38 -88t-38 -88t-90 -37z" />
    <glyph glyph-name="plus" unicode="+" horiz-adv-x="785" 
d="M786 439v-107q0 -22 -16 -38t-38 -15h-232v-233q0 -22 -16 -37t-38 -16h-107q-22 0 -38 16t-15 37v233h-232q-23 0 -38 15t-16 38v107q0 23 16 38t38 16h232v232q0 22 15 38t38 16h107q23 0 38 -16t16 -38v-232h232q22 0 38 -16t16 -38z" />
    <glyph glyph-name="youtube-play" unicode="," 
d="M714 350q0 21 -16 30l-286 179q-17 11 -36 1t-19 -31v-358q0 -21 19 -31q9 -4 17 -4q11 0 19 5l286 179q16 9 16 30zM1000 350q0 -54 -1 -84t-4 -76t-13 -82q-9 -41 -38 -69t-70 -32q-123 -14 -374 -14t-374 14q-40 4 -70 32t-39 69q-7 36 -12 82t-4 76t-1 84t1 84t4 76
t13 82q9 41 38 69t70 32q123 14 374 14t374 -14q40 -4 70 -32t39 -69q8 -36 12 -82t4 -76t1 -84z" />
    <glyph glyph-name="minus" unicode="-" horiz-adv-x="785" 
d="M786 439v-107q0 -22 -16 -38t-38 -15h-678q-23 0 -38 15t-16 38v107q0 23 16 38t38 16h678q22 0 38 -16t16 -38z" />
    <glyph glyph-name="foursquare" unicode="." horiz-adv-x="928" 
d="M828 279l-328 -328q-29 -30 -71 -30t-72 30l-327 328q-30 29 -30 71t30 71l327 328q30 30 72 30t71 -30l148 -148l-222 -223l-105 105q-24 24 -56 24t-55 -23l-67 -68q-24 -22 -24 -54.5t24 -56.5l226 -227q17 -16 38 -21l3 -2h16q33 0 55 23l345 345l2 -2q29 -29 29 -71
t-29 -72v1zM785 628l67 -67q7 -8 7 -20t-7 -20l-408 -408q-9 -8 -20 -8q-3 0 -4 1q-10 1 -17 7l-227 228q-7 8 -7 20t7 20l68 67q7 8 19 8t21 -8l140 -141l320 321q9 8 21 8t20 -8z" />
    <glyph glyph-name="delicious" unicode="/" horiz-adv-x="1009" 
d="M0 -150v501h501v-501h-501zM509 349v501h500v-501h-500z" />
    <glyph glyph-name="android" unicode="0" horiz-adv-x="920" 
d="M0 201v269q0 26 19 45t44.5 18.5t44.5 -18.5t18 -45v-269q0 -26 -18 -44t-45 -19t-44 19t-19 44zM173 101v418h574v-418q0 -26 -18 -44t-45 -19h-448q-26 0 -44 19t-19 44zM173 566h574q0 115 -85 189t-202 74t-202 -74t-85 -189zM274 882q0 8 7 8q3 0 7 -2l49 -89
l-15 -8q-48 88 -48 91zM289 75q0 27 19 45t47 18q25 0 44 -19t19 -44v-202q0 -28 -19 -46t-47 -17q-26 0 -44 18t-19 45v202zM294 695q0 16 12 28t28 11t28 -11t11.5 -27.5t-11.5 -28.5t-29 -12q-16 0 -27 12t-12 28zM502 75q0 27 20 45t46 18t45 -18t18 -45v-202
q0 -28 -19 -46t-47 -17q-26 0 -44 18t-19 45v202zM547 695q0 16 12 28t28 11t28 -11t11.5 -27.5t-12.5 -28.5t-28 -12t-27 12t-12 28zM583 799q2 3 14 29t24 44t18 18t7 -9v-2l-48 -89zM794 201v268q0 26 19 45t44 19t45 -19t18 -45v-268q0 -26 -18 -44t-45 -19t-45 19
t-18 44z" />
    <glyph glyph-name="wikipedia" unicode="1" horiz-adv-x="1106" 
d="M0 677v21l2 2h249l2 -2v-20q0 -8 -10 -8l-26 -1q-33 -1 -33 -20q0 -13 7 -28q50 -122 222 -484l6 -1l111 221q-13 30 -22 49l-96 190q-26 51 -34 61t-33 13q-14 2 -14 7v21l3 2h197l5 -1v-21q0 -8 -10 -8l-15 -2q-13 -2 -19 -5t-5 -12t4 -17t14 -31l73 -150l81 162
q16 32 5 43q-6 8 -37 11l-9 1q-4 0 -7 2t-3 7v19l3 2q57 1 186 0l2 -2v-20q0 -8 -9 -8q-22 -1 -30 -4t-17 -16q-23 -34 -30 -48l-105 -196l-3 -7l128 -262l8 -3l202 481q12 28 -3 41q-13 12 -39 13l-19 1q-3 0 -6.5 2.5t-3.5 6.5v20l3 2h229l2 -2v-20q0 -7 -9 -9
q-46 -2 -66 -18.5t-34 -49.5l-250 -567q-10 -23 -22 -30t-24 1t-23 30q-38 75 -122 263q-105 -216 -131 -264q-41 -71 -71 -1q-32 75 -130 285t-130 286q-16 42 -27.5 52t-52.5 13q-14 2 -14 7z" />
    <glyph glyph-name="stackoverflow" unicode="2" horiz-adv-x="784" 
d="M0 -150v417l76 -1l-3 -335h501v334h79v-415h-653zM123 69h392v-83h-392v83zM124 134l8 85l393 -38l-8 -85zM145 307l23 82l380 -107l-24 -82zM216 508l44 73l338 -204l-45 -73zM383 713l69 50l230 -321l-70 -50zM635 836l84 14l65 -389l-84 -14z" />
    <glyph glyph-name="forrst" unicode=":" horiz-adv-x="834" 
d="M0 -150l417 1000l417 -1000h-369v135l170 85l-13 55l-157 -79v67l98 52l-14 57l-84 -45v87h-92v-157l-86 59l-16 -64l102 -70v-182h-373z" />
    <glyph glyph-name="digg" unicode=";" horiz-adv-x="1122" 
d="M0 152v372q0 13 13 13h176v129q0 14 13 14h98v-514q0 -14 -12 -14h-288zM109 235h67q13 0 13 14v206h-67q-13 0 -13 -14v-206zM334 152v372q0 13 13 13h98v-371q0 -14 -12 -14h-99zM334 597v69q0 14 12 14h99v-69q0 -14 -12 -14h-99zM483 152v372q0 13 13 13h288v-504
q0 -13 -13 -13h-288l1 69q0 14 12 14h176v49h-189zM593 235h67q12 0 12 14v206h-67q-12 0 -12 -14v-206zM822 89q0 14 13 14h176v49h-189v372q0 13 13 13h287v-504q0 -13 -12 -13h-288v69zM931 235h67q13 0 13 14v206h-67q-13 0 -13 -14v-206z" />
    <glyph glyph-name="reddit" unicode="&#x3e;" horiz-adv-x="1205" 
d="M0 353q0 62 50 106t112 44t105 -36h5q134 82 335 82l5 4l70 267l242 -36q0 -1 1.5 -1t0.5 1q2 1 12 16t14 18q34 32 82.5 32t82.5 -32t33 -82t-33 -84t-83 -35q-57 0 -87 39t-30 96q-2 -1 -97 13t-110 17h-3q-2 -2 -16 -53l-30 -109q-16 -58 -18 -64v-3l5 -4
q72 0 148 -20t130 -58l3 -2q1 1 2 1t2 1q25 18 36 25t29 13t43 6q68 0 116 -48t48 -117q0 -47 -26 -86t-70 -60q0 -195 -260 -303q-41 -18 -56 -23q-32 -10 -91 -19t-93 -9q-120 0 -231 35q-2 2 -72 38q-95 51 -152 116t-58 156h-5q-33 17 -59 50l-9 12q-15 27 -19 46t-4 50
zM34 341q0 -66 57 -112q5 59 48 116t101 101q-37 26 -82 26q-49 0 -86 -40t-38 -91zM136 195q0 -54 31 -104t80 -85t102 -60t105 -34q75 -14 146 -14q123 0 233 39t185 123h-3q30 38 43 69t13 72q0 54 -26 103t-70 84t-92 61t-100 38q-85 23 -181 23q-74 0 -151 -18
t-150 -54t-119 -99t-46 -144zM322 268q0 37 23 60t59 22t62 -22t25 -60q0 -36 -25 -60t-62 -24t-59 24t-23 60zM358 104h44q25 -45 80 -68t111 -24q58 0 110 24t84 68h41q-25 -62 -93 -96t-141 -34t-142 35t-94 95zM694 268q0 38 23 60t61 22q34 0 58 -24t24 -58t-24 -59
t-58 -25q-37 0 -60 24t-24 60zM949 736q0 -35 25 -60t60.5 -25t58.5 25t23 59.5t-24 58.5t-58 24t-59 -24t-26 -58zM963 455q55 -36 95 -92t56 -120q59 43 59 96q0 58 -35 100t-93 42q-45 0 -82 -26z" />
    <glyph glyph-name="youtube-1" unicode="U" horiz-adv-x="863" 
d="M0 123q0 54 6 162q4 53 38 87t87 36q100 5 301 5t301 -5q53 -3 87 -36t38 -87q5 -90 5 -162t-5 -162q-4 -53 -38 -87t-87 -36q-100 -5 -301 -5t-301 5q-53 3 -87 36t-38 87q-6 108 -6 162zM67 264h61v-326h59v326h61v55h-181v-55zM132 867h60l38 -152h4l36 152h60
l-46 -148q-23 -73 -23 -75v-158h-59v151q-2 14 -5 26t-9 26t-9 25zM248 -18q0 -48 36 -48q32 0 61 35v-31h52v281h-52v-214q-21 -21 -31 -21q-14 0 -14 19v216h-52v-237zM327 557v146q0 34 22 53t55.5 18.5t54.5 -20.5t20 -53v-145q0 -36 -20 -56t-55.5 -20.5t-55.5 21.5
t-21 56zM381 550q0 -23 22.5 -23t22.5 25v153q0 9 -7 15t-16 6t-15 -5t-7 -15v-156zM448 -62h53v21q20 -25 50 -25q47 0 47 62v156q0 71 -51 71q-25 0 -46 -27v123h-53v-381zM501 -9v176q11 11 22 11q22 0 22 -28v-148q0 -24 -19 -24q-14 0 -25 13zM524 530v237h52v-215
q0 -19 13.5 -19t31.5 21v213h52v-281h-52v31q-29 -35 -61 -35q-36 0 -36 48zM638 17q0 -38 19 -63t57 -24q78 0 78 87v21h-54l1 -13q1 -11 -1 -17t-2 -14t-7 -12t-14 -3q-23 0 -23 40v53h100v72q0 38 -18 60t-57 22q-36 0 -57 -23t-22 -59v-127zM692 116v30q0 31 23 31
t23 -31v-30h-46z" />
    <glyph glyph-name="xing" unicode="X" horiz-adv-x="940" 
d="M0 152h219l173 286l-130 229h-219l130 -229zM362 242l346 608h232l-345 -608l222 -392h-232z" />
    <glyph glyph-name="macstore" unicode="^" horiz-adv-x="1106" 
d="M0 237v151q0 10 7 18t18 7h265l-115 -201h-150q-11 0 -18 7t-7 18zM122 -7l66 -38zM132 37q-3 10 2 19l304 528q5 9 15 12t19 -3l65 -37q10 -5 13 -15t-3 -20l-303 -528q-5 -9 -15 -11t-20 2l-65 38q-9 4 -12 15zM440 212l115 201h67l94 -201h-276zM518 837q1 9 6 12
q10 5 36 -31t71 -116t62 -105q28 -44 76 -130t91 -169t43 -84q11 -19 -2 -36t-31 -24.5t-24 -8.5t-30 7q-30 15 -190 393q-5 11 -13 31t-17 38t-19 42l-35 86q-9 22 -14 39t-8 32t-2 24zM846 413h235q10 0 18 -7t7 -18v-151q0 -10 -7 -17t-18 -8h-133q-4 16 -8 23zM859 97
q3 10 13 15l37 19q10 5 21 2t16 -14l31 -60q12 -24 -10 -39l-27 -16q-10 -5 -21 -2t-17 12l-40 62q-6 10 -3 21zM936 -48q0 16 4 21l12 14l24 9q61 12 72 -70q3 -32 -1 -76q-4 12 -44 30t-55 38q-13 18 -12 34z" />
    <glyph glyph-name="myspace" unicode="_" horiz-adv-x="1086" 
d="M0 175v350h140v-207h805v207h141v-350h-1086z" />
    <glyph glyph-name="amazon" unicode="a" horiz-adv-x="1100" 
d="M2 74q5 8 16 1q250 -145 544 -145q196 0 387 73l15 6q10 4 13 6q15 6 24 -6t-6 -22q-18 -13 -46 -30q-86 -51 -192 -79t-207 -28q-156 0 -295 54t-249 154q-6 5 -6 9t2 7zM303 359q0 69 34 118t93 74q54 23 133 33q27 3 88 8v17q0 64 -14 86q-21 30 -66 30h-8
q-33 -3 -57 -21t-31 -50q-4 -20 -20 -23l-115 14q-17 4 -17 18q0 3 1 7q17 89 84 132t155 48h25q114 0 178 -59q10 -10 19 -21t13 -21t9 -26t6 -23l3 -28q2 -21 1 -26v-242q0 -26 8 -47t14 -31t23 -31q6 -9 6 -16.5t-8 -13.5l-90 -78q-12 -9 -29 -2q-14 12 -24 23l-15 16
q-5 5 -15 20t-14 19q-56 -61 -110 -76q-34 -10 -84 -10q-77 0 -126 48t-50 134zM475 379q0 -39 20 -62t52 -24q3 0 9 1l7 1q42 11 65 54q11 19 17 42t6 36v71q-58 0 -88 -8q-88 -25 -88 -111zM895 57q2 4 6 8q25 17 48 23q38 10 74 11q10 1 19 -1q45 -4 54 -15q4 -6 4 -18
v-7q0 -35 -19 -83t-53 -76q-5 -4 -8 -4t-5 1q-6 3 -3 11q37 87 37 121q0 11 -4 16q-10 12 -56 12q-17 0 -40 -2l-46 -6q-6 0 -8 2t-1.5 3.5t1.5 3.5z" />
    <glyph glyph-name="ebay" unicode="e" horiz-adv-x="1395" 
d="M0 285q0 31 5 54t22 46t46 39t84 24t128 9q88 0 148 -13q39 -8 58 -18v-161h-293q0 -21 2 -33t9 -31t27 -27t49 -9q85 0 85 61h121v-89q-27 -13 -56 -19q-68 -15 -150 -15q-92 0 -151 13t-87 39t-37 56t-10 74zM198 319h178q0 18 -1 27t-9 23t-27 22t-54 7q-31 0 -50 -7
t-27 -23t-8 -24t-2 -25zM491 137v89h78q-1 -51 -74 -87q-2 -2 -4 -2zM491 137q2 0 4 2q73 36 74 87h-78v39h81q1 12 1 23q0 45 -13 76q-16 39 -69 62v183h107v-203h2q31 44 88 44q43 0 69 -26q-40 -29 -40 -102q0 -104 76 -122q-1 -31 -5 -54t-16 -47t-32 -36t-54 -13
q-64 0 -91 50h-1v-42h-103v79zM491 265v161q53 -23 69 -62q13 -31 13 -76q0 -11 -1 -23h-81zM598 254q0 -77 9 -107t35 -31q28 0 37 31t9 107v5q0 35 -1 52t-5 37t-13 28t-26 8t-26 -8t-13 -30t-5 -38t-1 -54zM717 322q0 73 40 102q17 -18 26 -53t10 -55t0 -64v-52
q-76 18 -76 122zM725 481q0 69 40 94q34 26 101 26l49 -3l107 -218v-102q0 -14 2 -39t2 -34h-100l-5 52h-2q-33 -58 -100 -58q-18 0 -26 1v116q0 21 -10 55t-26 53q38 29 135 29h24v31q0 29 -8 43t-35 14t-34 -15t-7 -45h-107zM822 327q0 -62 41 -62q13 0 23 5t15 14l10 18
q5 9 4 24t2 23t0 24t-1 20h-17q-13 0 -16 -1l-14 -2l-14 -3q-14 -3 -11 -5t-9 -8t-7 -11t-5 -16t-1 -20zM889 650h154l100 -232l109 232h143l-189 -359v-190h-141v190l-43 89v91q0 55 -21 87t-86 40zM915 598q64 -9 86 -40t21 -87v-91z" />
    <glyph glyph-name="info" unicode="&#x2139;" horiz-adv-x="460" 
d="M352 850q48 0 74 -27t26 -69q0 -50 -39 -88t-95 -38q-48 0 -74 26t-25 72t36 85t97 39zM146 -150q-100 0 -54 178l60 254q14 56 1 56t-55 -18t-72 -38l-26 44q90 78 189 126t151 48q78 0 36 -162l-70 -266q-16 -64 6 -64q44 0 118 60l30 -40q-84 -86 -175 -132t-139 -46z
" />
    <glyph glyph-name="pencil-2" unicode="&#x229f;" horiz-adv-x="989" 
d="M0 -143l68 343l274 -273zM137 249l422 422l259 -260l-421 -422zM668 743q2 39 31 69t69 31t66 -26l131 -130q25 -26 24 -66t-30 -69t-69 -30t-66 24l-131 131q-27 27 -25 66z" />
    <glyph glyph-name="floppy-1" unicode="&#x2302;" horiz-adv-x="800" 
d="M658 750l142 -156v-544q0 -40 -29 -70t-71 -30h-600q-40 0 -70 30t-30 70v600q0 42 30 71t70 29h558zM600 450v250h-400v-250q0 -20 15 -35t35 -15h300q20 0 35 15t15 35zM550 650v-200h-100v200h100z" />
    <glyph glyph-name="right-dir" unicode="&#x25b8;" horiz-adv-x="357" 
d="M321 350q0 -14 -10 -25l-250 -250q-11 -11 -25 -11t-25 11t-11 25v500q0 15 11 25t25 11t25 -11l250 -250q10 -10 10 -25z" />
    <glyph glyph-name="cloud" unicode="&#x2601;" 
d="M760 494q100 0 170 -68t70 -166t-70 -166t-170 -68h-578q-74 0 -128 52t-54 125t53 125t129 52l20 -2q-2 12 -2 38q0 108 78 184t188 76q90 0 160 -52t94 -134q28 4 40 4z" />
    <glyph glyph-name="umbrella" unicode="&#x2602;" horiz-adv-x="928" 
d="M500 388v-324q0 -58 -42 -100t-101 -43t-100 43t-43 100q0 15 11 25t25 11t25 -11t11 -25q0 -28 22 -49t49 -22t50 22t22 49v324q18 6 35 6t36 -6zM929 373q0 -7 -6 -13t-12 -5.5t-13 6.5q-27 25 -52 38t-57 13q-38 0 -71 -21t-58 -54q-4 -5 -10 -15l-8 -14
q-6 -9 -15.5 -9t-15.5 9q-3 4 -9 14l-9 15q-24 34 -58 54t-71 21t-71 -21t-57 -54q-4 -5 -10 -15l-8 -14q-6 -9 -16 -9t-16 9l-8 14q-6 10 -10 15q-24 34 -57 54t-71 21q-33 0 -57 -13t-52 -38q-7 -6 -13.5 -6t-12.5 5t-5 13q0 3 1 4q25 102 96 178t166 114t201 38
q78 0 153 -22t138 -64t109 -104t64 -140q1 -1 1 -4zM500 779v-55q-23 1 -36 1t-35 -1v55q0 14 10 25t25 10t25 -10t11 -25z" />
    <glyph glyph-name="right-hand" unicode="&#x261e;" 
d="M143 100q0 15 -11 25t-25 11t-25 -11t-11 -25t11 -25t25 -11t25 11t11 25zM929 421q0 29 -22 50t-50 22h-321q0 11 8 27t19 31t18 38t8 47q0 37 -25 54t-64 17q-13 0 -50 -77l-21 -37q-22 -35 -62 -80.5t-57 -59.5q-38 -32 -78 -32h-18v-357h18q40 0 93 -18t108 -35
t100 -18q106 0 106 93q0 14 -3 31q17 9 27 30t9 41t-10 38q30 28 30 66q0 14 -6 31t-14 27h185q29 0 50 21t22 50zM1000 422q0 -59 -42 -101t-101 -42h-94q-2 -35 -21 -67q2 -12 2 -24q0 -56 -34 -99q1 -78 -47 -123t-127 -45q-74 0 -179 39q-92 33 -125 33h-161
q-29 0 -50 21t-21 50v357q0 30 21 51t50 21h161q6 0 12 2t13 8t13 10t13 13t12 12t10 12t8 9q36 42 56 72q7 12 18 35t21 40t23 35t30 28t39 10q70 0 115 -38t46 -105q0 -38 -13 -72h209q58 0 101 -42t42 -100z" />
    <glyph glyph-name="th-list" unicode="&#x2630;" 
d="M286 154v-108q0 -22 -16 -37t-38 -16h-178q-23 0 -38 16t-16 37v108q0 22 16 38t38 15h178q22 0 38 -15t16 -38zM286 439v-107q0 -22 -16 -38t-38 -15h-178q-23 0 -38 15t-16 38v107q0 23 16 38t38 16h178q22 0 38 -16t16 -38zM1000 154v-108q0 -22 -16 -37t-38 -16h-535
q-23 0 -38 16t-16 37v108q0 22 16 38t38 15h535q23 0 38 -15t16 -38zM286 725v-107q0 -22 -16 -38t-38 -16h-178q-23 0 -38 16t-16 38v107q0 22 16 38t38 16h178q22 0 38 -16t16 -38zM1000 439v-107q0 -22 -16 -38t-38 -15h-535q-23 0 -38 15t-16 38v107q0 23 16 38t38 16
h535q23 0 38 -16t16 -38zM1000 725v-107q0 -22 -16 -38t-38 -16h-535q-23 0 -38 16t-16 38v107q0 22 16 38t38 16h535q23 0 38 -16t16 -38z" />
    <glyph glyph-name="moon" unicode="&#x263d;" horiz-adv-x="820" 
d="M524 238q106 106 125 252t-53 270q52 -26 96 -72q128 -128 128 -309t-128 -309t-310 -128t-310 128q-40 40 -72 94q124 -70 271 -51t253 125z" />
    <glyph glyph-name="th" unicode="&#x268f;" 
d="M286 154v-108q0 -22 -16 -37t-38 -16h-178q-23 0 -38 16t-16 37v108q0 22 16 38t38 15h178q22 0 38 -15t16 -38zM286 439v-107q0 -22 -16 -38t-38 -15h-178q-23 0 -38 15t-16 38v107q0 23 16 38t38 16h178q22 0 38 -16t16 -38zM643 154v-108q0 -22 -16 -37t-38 -16h-178
q-23 0 -38 16t-16 37v108q0 22 16 38t38 15h178q23 0 38 -15t16 -38zM286 725v-107q0 -22 -16 -38t-38 -16h-178q-23 0 -38 16t-16 38v107q0 22 16 38t38 16h178q22 0 38 -16t16 -38zM643 439v-107q0 -22 -16 -38t-38 -15h-178q-23 0 -38 15t-16 38v107q0 23 16 38t38 16
h178q23 0 38 -16t16 -38zM1000 154v-108q0 -22 -16 -37t-38 -16h-178q-22 0 -38 16t-16 37v108q0 22 16 38t38 15h178q23 0 38 -15t16 -38zM643 725v-107q0 -22 -16 -38t-38 -16h-178q-23 0 -38 16t-16 38v107q0 22 16 38t38 16h178q23 0 38 -16t16 -38zM1000 439v-107
q0 -22 -16 -38t-38 -15h-178q-22 0 -38 15t-16 38v107q0 23 16 38t38 16h178q23 0 38 -16t16 -38zM1000 725v-107q0 -22 -16 -38t-38 -16h-178q-22 0 -38 16t-16 38v107q0 22 16 38t38 16h178q23 0 38 -16t16 -38z" />
    <glyph glyph-name="flag" unicode="&#x2691;" horiz-adv-x="900" 
d="M874 616q14 6 22 -1t0 -19q-96 -138 -164 -213t-110 -90t-73 -2t-60 37t-63 40t-93 -4t-139 -86l90 -352h-100l-184 720l92 34q90 66 152 86t98 3t64 -51t62 -71t79 -62t129 -20t198 51z" />
    <glyph glyph-name="cog" unicode="&#x2699;" horiz-adv-x="857" 
d="M571 350q0 59 -41 101t-101 42t-101 -42t-42 -101t42 -101t101 -42t101 42t41 101zM857 411v-124q0 -7 -4 -13t-11 -7l-104 -16q-10 -30 -21 -51q19 -27 59 -77q6 -6 6 -13t-5 -13q-15 -21 -55 -61t-53 -39q-7 0 -14 5l-77 60q-25 -13 -51 -21q-9 -76 -16 -104
q-4 -16 -20 -16h-124q-8 0 -14 5t-6 12l-16 103q-27 9 -50 21l-79 -60q-6 -5 -14 -5t-14 6q-70 64 -92 94q-4 5 -4 12t5 13q8 12 28 37t30 40q-15 28 -23 55l-102 15q-7 1 -11 7t-5 13v124q0 7 5 13t10 7l104 16q8 25 22 51q-23 32 -60 77q-6 7 -6 13t5 13q15 20 55 60
t53 40q7 0 15 -5l77 -60q24 13 50 21q9 76 17 104q3 15 20 15h124q7 0 13 -4t7 -12l15 -103q28 -9 50 -21l80 60q5 5 12.5 5t14.5 -5q72 -67 92 -95q4 -5 4 -12t-4 -13l-59 -77q14 -28 23 -55l102 -15q7 -1 12 -7t4 -13z" />
    <glyph glyph-name="attention" unicode="&#x26a0;" 
d="M571 83v106q0 8 -5 13t-12 5h-108q-7 0 -12 -5t-5 -13v-106q0 -8 5 -13t12 -6h108q7 0 12 6t5 13zM570 291l10 257q0 6 -5 10q-7 6 -14 6h-122q-7 0 -14 -6q-5 -4 -5 -12l9 -255q0 -5 6 -9t13 -3h103q8 0 13 3t6 9zM563 813l428 -786q20 -35 -1 -70q-10 -17 -26 -26
t-35 -10h-858q-18 0 -35 10t-26 26q-21 35 -1 70l429 786q9 17 26 27t36 10t36 -10t27 -27z" />
    <glyph glyph-name="flash" unicode="&#x26a1;" horiz-adv-x="400" 
d="M40 -100q-4 4 35 94l79 182q40 92 38 98t-94 45t-98 55q-4 12 84 120t180 209t97 97t-75 -186t-78 -186t95 -43t97 -58t-174 -226t-186 -201z" />
    <glyph glyph-name="cloud-thunder" unicode="&#x26c8;" 
d="M760 494q100 0 170 -68t70 -166t-70 -166t-170 -68h-578q-74 0 -128 52t-54 125t53 125t129 52l20 -2q-2 12 -2 38q0 108 78 184t188 76q90 0 160 -52t94 -134q28 4 40 4zM568 278q14 16 14 30q0 20 -30 32h-4q-26 14 -38 16l50 116q6 0 6 20q0 14 -8 18q-16 10 -34 -8
l-91 -98q-33 -36 -45 -53t-12 -29q0 -22 30 -30l4 -2q8 -4 38 -16l-52 -114l-2 -8q-2 -8 -2 -14q0 -10 8 -18q18 -10 34 10q100 100 134 148z" />
    <glyph glyph-name="cog-alt" unicode="&#x26ef;" horiz-adv-x="1071" 
d="M500 350q0 59 -42 101t-101 42t-101 -42t-42 -101t42 -101t101 -42t101 42t42 101zM929 64q0 29 -22 51t-50 21t-50 -21t-21 -51q0 -29 21 -50t50 -21t51 21t21 50zM929 636q0 29 -22 50t-50 21t-50 -21t-21.5 -50.5t21.5 -50.5t50 -21t51 21t21 51zM714 401v-103
q0 -6 -4 -11t-9 -6l-86 -14q-6 -19 -18 -42q19 -27 50 -64q4 -6 4 -12t-4 -10q-13 -17 -46 -50t-44 -33q-6 0 -11 4l-64 50q-21 -11 -43 -17q-6 -60 -13 -87q-4 -13 -17 -13h-104q-6 0 -11 4t-5 10l-13 85q-19 6 -42 18l-66 -50q-4 -4 -10.5 -4t-12.5 4q-80 75 -80 90
q0 5 4 10q5 8 23 30t26 34q-13 24 -20 46l-85 13q-5 1 -9 5t-4 11v103q0 6 4 11t9 6l86 14q7 19 18 42q-19 27 -50 64q-4 6 -4 12t4 10q12 17 46 50t44 33q6 0 12 -4l64 -50q19 10 43 18q6 60 13 86q3 13 16 13h104q6 0 11 -4t6 -10l13 -85q19 -6 41 -17l66 49q5 4 11.5 4
t11.5 -4q81 -75 81 -90q0 -5 -4 -10l-24 -30q-17 -21 -25 -34q13 -27 19 -46l85 -12q5 -2 9 -6t4 -11zM1071 103v-78q0 -9 -83 -17q-6 -15 -16 -29q28 -63 28 -77q0 -2 -2 -4q-68 -40 -69 -40q-5 0 -26 27l-29 37q-11 -1 -17 -1t-17 1q-7 -11 -29 -37t-25 -27q-1 0 -69 40
q-3 2 -3 4q0 14 29 77q-10 14 -17 29q-83 8 -83 17v78q0 9 83 18q7 16 17 29q-29 63 -29 77q0 2 3 4l52 30q16 9 17 9q4 0 25 -26t29 -38l17 1l17 -1q28 40 51 63l4 1q2 0 69 -39q2 -2 2 -4q0 -14 -28 -77q9 -13 16 -29q83 -9 83 -18zM1071 675v-78q0 -9 -83 -18
q-6 -15 -16 -29q28 -63 28 -77q0 -2 -2 -4q-68 -39 -69 -39q-5 0 -26 26t-29 38q-11 -1 -17 -1t-17 1q-7 -12 -29 -38t-24 -26t-70 39q-3 2 -3 4q0 14 29 77q-10 14 -17 29q-83 9 -83 18v78q0 9 83 17q7 16 17 29q-29 63 -29 77q0 2 3 4l52 30q16 9 17 9q4 0 25 -26t29 -38
q12 2 17 2t17 -2q28 40 51 63l4 1q2 0 69 -39q2 -2 2 -4q0 -14 -28 -77q9 -13 16 -29q83 -8 83 -17z" />
    <glyph glyph-name="flight" unicode="&#x2708;" 
d="M268 -120l124 400h-180l-112 -100h-100l80 170l-80 170h100l112 -100h180l-124 400h100l224 -400h274l36 -4q36 -4 46 -11t36 -21t16 -34q0 -32 -38 -49t-74 -19l-38 -2h-258l-224 -400h-100z" />
    <glyph glyph-name="mail" unicode="&#x2709;" horiz-adv-x="900" 
d="M30 586q-32 18 -28 40q2 14 26 14h846q38 0 20 -32q-8 -14 -24 -22q-14 -6 -192 -102l-182 -98q-16 -10 -45 -10t-47 10l-182 98q-178 96 -192 102zM880 486q20 10 20 -10v-368q0 -16 -17 -32t-33 -16h-800q-16 0 -33 16t-17 32v368q0 20 20 10l384 -200q18 -10 46 -10
t46 10z" />
    <glyph glyph-name="edit" unicode="&#x270d;" 
d="M496 189l64 65l-85 85l-64 -65v-31h53v-54h32zM741 591q-9 9 -18 0l-196 -196q-9 -9 0 -18t18 0l196 196q9 9 0 18zM786 260v-106q0 -67 -47 -114t-114 -47h-464q-67 0 -114 47t-47 114v464q0 66 47 113t114 48h464q35 0 65 -14q9 -4 10.5 -13.5t-5.5 -15.5l-27 -28
q-8 -8 -18 -4q-13 3 -25 3h-464q-37 0 -63 -26t-27 -63v-464q0 -37 27 -63t63 -27h464q37 0 63 27t26 63v70q0 7 5 12l36 36q8 8 20 4t11 -16zM732 671l161 -160l-375 -375h-161v160zM980 598l-51 -52l-161 161l51 51q16 16 38 16t38 -16l85 -84q16 -16 16 -38t-16 -38z" />
    <glyph glyph-name="pencil" unicode="&#x270e;" horiz-adv-x="780" 
d="M718 680q32 -32 47 -64t15 -48v-16l-252 -252l-290 -288l-238 -52l50 240l290 288l252 252q54 12 126 -60zM224 40l24 24q-2 44 -52 94q-22 22 -45 35t-35 13l-14 2l-22 -24l-18 -80q28 -16 46 -34q24 -24 36 -48z" />
    <glyph glyph-name="ok" unicode="&#x2713;" 
d="M932 534q0 -22 -15 -38l-480 -480q-16 -15 -38 -15t-38 15l-278 278q-15 16 -15 38t15 38l76 76q16 16 38 16t38 -16l164 -165l366 367q16 16 38 16t38 -16l76 -76q15 -16 15 -38z" />
    <glyph glyph-name="ok-circle" unicode="&#x2714;" horiz-adv-x="857" 
d="M717 440q0 16 -11 26l-50 50q-11 11 -25 11t-26 -11l-227 -227l-126 126q-11 11 -25 11t-26 -11l-50 -50q-10 -10 -10 -25.5t10 -25.5l202 -202q10 -10 25 -10t25 10l303 303q11 10 11 25zM857 350q0 -117 -57 -215t-156 -156t-215 -58t-216 58t-155 156t-58 215t58 215
t155 156t216 58t215 -58t156 -156t57 -215z" />
    <glyph glyph-name="cancel" unicode="&#x2715;" horiz-adv-x="785" 
d="M724 112q0 -22 -15 -38l-76 -76q-16 -15 -38 -15t-38 15l-164 165l-164 -165q-16 -15 -38 -15t-38 15l-76 76q-16 16 -16 38t16 38l164 164l-164 164q-16 16 -16 38t16 38l76 76q16 16 38 16t38 -16l164 -164l164 164q16 16 38 16t38 -16l76 -76q15 -15 15 -38t-15 -38
l-164 -164l164 -164q15 -15 15 -38z" />
    <glyph glyph-name="menu-1" unicode="&#x2796;" horiz-adv-x="857" 
d="M857 100v-71q0 -15 -10 -25t-26 -11h-785q-15 0 -25 11t-11 25v71q0 15 11 25t25 11h785q15 0 26 -11t10 -25zM857 386v-72q0 -14 -10 -25t-26 -10h-785q-15 0 -25 10t-11 25v72q0 14 11 25t25 10h785q15 0 26 -10t10 -25zM857 671v-71q0 -15 -10 -25t-26 -11h-785
q-15 0 -25 11t-11 25v71q0 15 11 26t25 10h785q15 0 26 -10t10 -26z" />
    <glyph glyph-name="direction" unicode="&#x27a2;" horiz-adv-x="860" 
d="M848 768q8 -8 11 -16t-2 -22t-10 -26t-19 -39t-24 -49q-54 -112 -147 -286t-157 -292l-66 -118l-54 380l-380 56q442 246 696 368q20 10 48 25t39 20t25 9t23 1t17 -11zM756 672l-304 -280l28 -234z" />
    <glyph glyph-name="forward" unicode="&#x27a6;" horiz-adv-x="900" 
d="M540 252q-210 0 -332 -45t-208 -197q4 20 13 53t50 117t96 148t156 117t225 53v192l360 -322l-360 -334v218z" />
    <glyph glyph-name="heart-empty" unicode="&#xe179;" horiz-adv-x="860" 
d="M790 642q70 -64 70 -156t-70 -156l-360 -330l-360 330q-70 64 -70 156t70 156q64 58 152 58t150 -58l58 -52l56 52q64 58 152 58t152 -58zM736 382q42 40 42 105t-38 99q-38 38 -102 38q-52 0 -104 -48l-104 -92l-106 92q-48 48 -102 48q-64 0 -104 -38q-38 -36 -38 -101
t44 -103l306 -286z" />
    <glyph glyph-name="user" unicode="&#xe276;" horiz-adv-x="940" 
d="M736 128q204 -72 204 -122v-106h-940v106q0 50 204 122q94 34 128 69t34 95q0 22 -22 49t-32 73q-2 12 -9 18t-14 8t-14 17t-9 43q0 16 5 26t9 12l4 4q-8 50 -12 88q-4 54 41 112t157 58t158 -58t40 -112l-12 -88q18 -8 18 -42q-2 -28 -9 -43t-14 -17t-14 -8t-9 -18
q-8 -48 -31 -74t-23 -48q0 -60 35 -95t127 -69z" />
    <glyph glyph-name="user-add" unicode="&#xe700;" 
d="M620 128q180 -64 180 -122v-106h-800v202q36 14 82 26q94 34 129 69t35 95q0 22 -23 48t-31 74q-2 12 -23 25t-25 61q0 16 5 26t9 12l4 4q-8 50 -12 88q-6 54 40 112t160 58t160 -58t42 -112l-14 -88q18 -8 18 -42q-2 -28 -9 -43t-14 -17t-14 -8t-9 -18q-10 -46 -33 -73
t-23 -49q0 -60 36 -95t130 -69zM850 400h150v-100h-150v-150h-100v150h-150v100h150v150h100v-150z" />
    <glyph glyph-name="ok-circle2" unicode="&#xe702;" horiz-adv-x="857" 
d="M653 396l-235 -235q-11 -11 -25 -11t-25 11l-164 164q-11 11 -11 25t11 25l57 57q10 11 25 11t25 -11l82 -82l153 153q11 11 25 11t26 -11l56 -56q11 -11 11 -26t-11 -25zM732 350q0 83 -41 152t-110 111t-152 41t-153 -41t-110 -111t-41 -152t41 -152t110 -111t153 -41
t152 41t110 111t41 152zM857 350q0 -117 -57 -215t-156 -156t-215 -58t-216 58t-155 156t-58 215t58 215t155 156t216 58t215 -58t156 -156t57 -215z" />
    <glyph glyph-name="info-circled" unicode="&#xe705;" horiz-adv-x="920" 
d="M454 810q190 2 326 -130t139 -322t-130 -327t-323 -140t-327 130t-140 323t131 327t324 139zM506 658q-42 0 -65 -24t-23 -50q-2 -28 15 -44t49 -16q38 0 61 22t23 54q0 58 -60 58zM386 64q30 0 84 26t106 78l-18 24q-48 -36 -72 -36q-14 0 -4 38l42 160q26 96 -22 96
q-30 0 -89 -29t-115 -75l16 -26q52 34 74 34q12 0 0 -34l-36 -152q-26 -104 34 -104z" />
    <glyph glyph-name="eye" unicode="&#xe70a;" 
d="M500 630q92 0 177 -25t141 -62t99 -77t63 -71t20 -45t-20 -44t-63 -71t-99 -78t-141 -62t-177 -25t-177 25t-141 62t-99 78t-63 71t-20 44t20 45t63 71t99 77t141 62t177 25zM500 136q92 0 157 63t65 152t-65 152t-157 63t-157 -63t-65 -152t65 -152t157 -63zM500 350
q8 -8 37 -2t50 11t25 -9q0 -44 -33 -75t-79 -31t-78 31t-32 76t32 76t78 31q14 0 10 -23t-12 -47t2 -38z" />
    <glyph glyph-name="tag" unicode="&#xe70c;" horiz-adv-x="960" 
d="M944 830q36 -106 -8 -199t-128 -157l18 -24q16 -28 6 -54l-48 -158q-12 -30 -36 -46l-464 -328q-42 -30 -64 4l-210 304q-12 18 -9 39t21 33l464 328q26 18 54 18h158q30 0 48 -26l28 -40q168 130 114 286q-10 28 18 40q32 8 38 -20zM728 362q40 32 34 80l-32 -16
q-8 -4 -12 -4q-18 0 -28 18q-12 30 16 40l24 14q-48 34 -92 0q-28 -18 -34 -51t14 -61q18 -26 51 -32t59 12z" />
    <glyph glyph-name="tags" unicode="&#xe70d;" horiz-adv-x="1071" 
d="M250 600q0 30 -21 51t-50 20t-51 -20t-21 -51t21 -50t51 -21t50 21t21 50zM845 279q0 -30 -20 -51l-274 -274q-22 -21 -51.5 -21t-49.5 21l-399 399q-21 21 -36 57t-15 65v232q0 29 21 50t50 22h233q29 0 65 -15t57 -36l399 -399q20 -21 20 -50zM1060 279q0 -30 -21 -51
l-274 -274q-22 -21 -51 -21q-20 0 -33 8t-29 25l262 262q21 21 21 50.5t-21 50.5l-399 399q-21 21 -57 36t-65 15h125q29 0 65 -15t57 -36l399 -399q21 -21 21 -50z" />
    <glyph glyph-name="reply" unicode="&#xe712;" horiz-adv-x="900" 
d="M900 10q-86 152 -208 197t-330 45v-218l-362 334l362 322v-192q90 0 168 -27t131 -70t96 -95t69 -104t44 -95t24 -69z" />
    <glyph glyph-name="print" unicode="&#xe716;" horiz-adv-x="980" 
d="M66 526q-26 0 -22 22q4 10 12 14q2 0 49 17t93 32t58 15h44v150h380v-150h46q12 0 57 -15t92 -32t49 -17q18 -8 12 -26q-4 -10 -20 -10h-850zM926 470q20 0 37 -19t17 -41v-174q0 -22 -17 -41t-37 -19h-100l44 -250h-760l44 250h-98q-20 0 -38 19t-18 41v174q0 22 18 41
t38 19h870zM210 26h560l-70 324h-420z" />
    <glyph glyph-name="retweet" unicode="&#xe717;" 
d="M250 190h272l128 -140h-448q-42 0 -71 30t-29 70v302h-102l176 198l174 -198h-100v-262zM900 250h100l-174 -200l-176 200h102v260h-274l-128 140h450q40 0 70 -29t30 -71v-300z" />
    <glyph glyph-name="comment" unicode="&#xe718;" horiz-adv-x="800" 
d="M700 700q42 0 71 -29t29 -71v-350q0 -40 -29 -70t-71 -30h-200v-150l-200 150h-200q-40 0 -70 30t-30 70v350q0 42 30 71t70 29h600z" />
    <glyph glyph-name="chat" unicode="&#xe720;" 
d="M290 240h350q2 0 6 2h4v-92q0 -40 -29 -70t-71 -30h-250l-150 -150v150h-50q-40 0 -70 30t-30 70v300q0 42 30 71t70 29h190v-310zM900 800q42 0 71 -29t29 -71v-300q0 -40 -29 -70t-71 -30h-50v-150l-150 150h-350v400q0 42 30 71t70 29h450z" />
    <glyph glyph-name="address" unicode="&#xe723;" 
d="M426 800q20 0 20 -20v-860q0 -20 -20 -20h-46q-20 0 -20 20v440h-176q-16 0 -28 6q-12 2 -26 12l-120 82q-10 6 -10 16t10 16l120 82q14 10 26 12q8 4 28 4h176v190q0 20 20 20h46zM990 592q10 -6 10 -16t-10 -16l-118 -82q-22 -12 -26 -12q-14 -6 -28 -6h-302l-40 230
h342q18 0 28 -4t26 -12z" />
    <glyph glyph-name="location" unicode="&#xe724;" horiz-adv-x="500" 
d="M250 750q104 0 177 -73t73 -178t-62 -242t-126 -223l-62 -84q-10 12 -27 35t-60 89t-76 130t-60 147t-27 149q0 104 73 177t177 73zM250 362q56 0 96 40t40 96t-40 95t-96 39t-95 -39t-39 -95t39 -96t95 -40z" />
    <glyph glyph-name="map" unicode="&#xe727;" 
d="M984 600q16 -10 16 -30v-584q0 -20 -16 -30q-8 -6 -16 -6t-18 6l-216 136l-216 -136q-18 -10 -34 0l-218 136l-216 -136q-16 -10 -33 0t-17 30v584q0 20 16 30l234 146q18 10 34 0l216 -136l218 136q16 10 32 0zM234 150v506l-168 -104v-506zM468 46v506l-168 104v-506z
M702 150v506l-170 -104v-506zM934 46v506l-168 104v-506z" />
    <glyph glyph-name="doc" unicode="&#xe730;" horiz-adv-x="700" 
d="M600 800q42 0 71 -29t29 -71v-700q0 -40 -29 -70t-71 -30h-500q-40 0 -70 30t-30 70v700q0 42 30 71t70 29h500zM600 0v700h-500v-700h500z" />
    <glyph glyph-name="docs" unicode="&#xe736;" horiz-adv-x="1001" 
d="M970 480q38 -10 30 -46l-150 -556q-4 -16 -18 -23t-30 -3l-406 110q-16 4 -24 18t-4 28l24 92l-180 -48q-40 -10 -50 26l-160 602q-10 36 28 48l454 122q16 4 30 -3t18 -23l66 -244zM82 670l144 -542l392 106l-144 540zM784 -72l132 492l-298 82l76 -282q10 -34 -28 -46
l-196 -52l-26 -102z" />
    <glyph glyph-name="chart-area" unicode="&#xe737;" horiz-adv-x="980" 
d="M964 732q16 22 16 -4v-768h-964q-12 0 -15 7t5 17l230 288q20 22 40 2l74 -66q10 -8 21 -7t17 11l158 238q16 26 38 4l112 -104q20 -20 38 4z" />
    <glyph glyph-name="briefcase" unicode="&#xe738;" 
d="M456 326v-100h-456l10 292q4 108 100 108h160q16 26 37 67l23 45q14 26 23 32t37 6h222q26 0 36 -7t22 -31q18 -32 60 -112h160q96 0 100 -108l10 -292h-454v100h-90zM382 680l-28 -54h292l-28 54q-14 26 -42 26h-152q-28 0 -42 -26zM546 76v100h430q-6 -88 -10 -166
q-6 -84 -90 -84h-750q-90 0 -90 84l-10 166h430v-100h90z" />
    <glyph glyph-name="attach" unicode="&#xe739;" horiz-adv-x="939" 
d="M244 -140q-102 0 -170 72q-72 70 -74 166t84 190l496 496q80 80 174 54q44 -12 79 -47t47 -79q26 -96 -54 -176l-474 -474q-40 -40 -88 -45t-80 27q-30 24 -27 74t47 92l332 334q24 26 50 0t0 -50l-332 -332q-44 -44 -20 -70q12 -8 24 -6q24 4 46 26l474 474
q50 50 34 109t-76 75q-54 14 -108 -36l-494 -494q-66 -76 -64 -143t52 -116t117 -51t141 62l496 494q24 24 50 1t0 -49l-496 -496q-82 -82 -186 -82z" />
    <glyph glyph-name="share" unicode="&#xe73c;" horiz-adv-x="800" 
d="M650 200q62 0 106 -43t44 -106t-44 -107t-106 -44t-106 44t-44 106q0 6 1 14t1 12l-260 156q-42 -32 -92 -32q-62 0 -106 44t-44 106t44 106t106 44q54 0 92 -30l260 156q0 4 -1 12t-1 12q0 62 44 106t106 44t106 -43t44 -106t-44 -107t-106 -44q-52 0 -90 32l-262 -156
q2 -8 2 -25t-2 -25l262 -156q36 30 90 30z" />
    <glyph glyph-name="basket" unicode="&#xe73d;" horiz-adv-x="928" 
d="M357 -7q0 -30 -21 -51t-50 -21t-51 21t-21 51t21 50t51 21t50 -21t21 -50zM857 -7q0 -30 -21 -51t-50 -21t-51 21t-21 51t21 50t51 21t50 -21t21 -50zM929 600v-286q0 -13 -9 -23t-23 -12l-583 -68l3 -12q2 -8 3 -15t1 -14t-13 -34h513q15 0 26 -11t10 -25t-10 -25
t-26 -11h-571q-14 0 -25 11t-11 25q0 8 6 22t17 33t11 21l-98 460h-114q-15 0 -25 10t-11 25t11 26t25 10h143q9 0 16 -3t11 -9t7 -14t4 -15t3 -16l3 -14h670q14 0 25 -11t11 -25z" />
    <glyph glyph-name="wrench" unicode="&#xe744;" horiz-adv-x="928" 
d="M214 29q0 14 -10 25t-25 10t-26 -10t-10 -25t10 -26t26 -10t25 10t10 26zM574 263l-381 -381q-21 -20 -50 -20t-51 20l-59 61q-21 20 -21 49.5t21 51.5l380 380q22 -55 64 -97t97 -64zM927 506q0 -22 -12 -59q-27 -75 -92 -122t-144 -46q-104 0 -177 73t-73 177t73 176
t177 74q32 0 67 -10t60 -26q9 -6 9 -15t-9 -16l-163 -94v-125l108 -60q2 2 44 27l75 45q33 20 40.5 20t12.5 -5t4 -14z" />
    <glyph glyph-name="zoom-in" unicode="&#xe750;" horiz-adv-x="928" 
d="M571 404v-36q0 -7 -5 -13t-12 -5h-125v-125q0 -7 -6 -13t-12 -5h-36q-7 0 -13 5t-5 13v125h-125q-7 0 -12 5t-6 13v36q0 7 6 12t12 5h125v125q0 8 5 13t13 5h36q7 0 12 -5t6 -13v-125h125q7 0 12 -5t5 -12zM643 386q0 103 -74 176t-176 74t-177 -74t-73 -176t73 -177
t177 -73t176 73t74 177zM929 -79q0 -29 -21 -50t-51 -21t-50 21l-191 191q-100 -69 -223 -69q-80 0 -153 31t-125 84t-84 125t-31 153t31 152t84 126t125 84t153 31t152 -31t126 -84t84 -126t31 -152q0 -123 -69 -223l191 -191q21 -21 21 -51z" />
    <glyph glyph-name="zoom-out" unicode="&#xe751;" horiz-adv-x="928" 
d="M571 404v-36q0 -7 -5 -13t-12 -5h-322q-7 0 -12 5t-6 13v36q0 7 6 12t12 5h322q7 0 12 -5t5 -12zM643 386q0 103 -74 176t-176 74t-177 -74t-73 -176t73 -177t177 -73t176 73t74 177zM929 -79q0 -29 -21 -50t-51 -21t-50 21l-191 191q-100 -69 -223 -69q-80 0 -153 31
t-125 84t-84 125t-31 153t31 152t84 126t125 84t153 31t152 -31t126 -84t84 -126t31 -152q0 -123 -69 -223l191 -191q21 -21 21 -51z" />
    <glyph glyph-name="air" unicode="&#xe753;" horiz-adv-x="905" 
d="M85 534q-16 -14 -36 -12t-34 17t-12 37t18 36q48 40 79 60t89 40t129 4t159 -66t155 -53t100 16t89 67q38 30 70 -6q32 -40 -6 -72q-122 -110 -234 -110q-100 0 -222 70q-68 38 -119 52t-93 0t-65 -29t-67 -51zM821 424q38 32 70 -7t-6 -71q-40 -34 -65 -53t-72 -38
t-97 -19q-96 0 -222 70q-68 38 -119 52t-93 0t-65 -29t-67 -51q-14 -14 -35 -12t-35 18q-32 40 6 73t60 49t69 38t88 23t105 -15t134 -56q68 -38 119 -52t93 0t65 29t67 51zM821 168q38 32 70 -6q14 -14 12 -36t-18 -36q-40 -34 -65 -53t-72 -38t-97 -19q-96 0 -222 70
q-68 38 -119 52t-93 1t-66 -29t-66 -52q-14 -14 -35 -12t-35 18q-32 40 6 73t60 49t69 38t88 23t105 -15t134 -56q68 -38 119 -52t93 0t65 29t67 51z" />
    <glyph glyph-name="floppy" unicode="&#xe755;" horiz-adv-x="857" 
d="M214 -7h429v214h-429v-214zM714 -7h72v500q0 8 -6 21t-11 20l-157 156q-5 6 -19 12t-22 5v-232q0 -22 -15 -38t-38 -16h-322q-22 0 -37 16t-16 38v232h-72v-714h72v232q0 22 16 38t37 16h465q22 0 38 -16t15 -38v-232zM500 511v178q0 8 -5 13t-13 5h-107q-7 0 -13 -5
t-5 -13v-178q0 -8 5 -13t13 -5h107q7 0 13 5t5 13zM857 493v-518q0 -22 -15 -38t-38 -16h-750q-23 0 -38 16t-16 38v750q0 22 16 38t38 16h517q23 0 50 -12t42 -26l156 -157q16 -15 27 -42t11 -49z" />
    <glyph glyph-name="phone" unicode="&#xe758;" horiz-adv-x="785" 
d="M786 158q0 -15 -6 -39t-12 -38q-11 -28 -68 -60q-52 -28 -103 -28q-16 0 -30 2t-32 7t-26 8l-59 21q-54 20 -97 47q-72 44 -148 120t-120 148q-27 43 -46 97l-10 28q-8 23 -12 31t-8 26l-7 32q-3 14 -2 29q0 52 29 104q31 56 59 68q14 6 38 12t39 6q8 0 12 -2
q10 -3 30 -43q6 -10 16 -30t20 -35t17 -30q2 -2 10 -14t12 -20t4 -16q0 -11 -16 -28t-35 -30t-34 -30t-16 -25q0 -5 3 -13l4 -11q1 -3 8 -14t7 -10q42 -77 97 -132t131 -97q1 0 10 -6t14 -8l11 -5q6 -3 13 -2q10 0 25 15t30 35t31 35t28 16q7 0 15 -4t20 -12t14 -10l65 -37
q19 -11 31 -17q39 -19 42 -29q2 -4 2 -12z" />
    <glyph glyph-name="trash-1" unicode="&#xe759;" horiz-adv-x="785" 
d="M286 439v-321q0 -8 -5 -13t-13 -5h-36q-8 0 -13 5t-5 13v321q0 8 5 13t13 5h36q8 0 13 -5t5 -13zM429 439v-321q0 -8 -5 -13t-13 -5h-36q-8 0 -13 5t-5 13v321q0 8 5 13t13 5h36q8 0 13 -5t5 -13zM571 439v-321q0 -8 -5 -13t-12 -5h-36q-8 0 -13 5t-5 13v321q0 8 5 13
t13 5h36q7 0 12 -5t5 -13zM643 35v529h-500v-529q0 -12 4 -22t8 -15t6 -5h464q2 0 6 5t8 15t4 22zM268 636h250l-27 65q-4 5 -9 6h-177q-6 -1 -10 -6zM786 618v-36q0 -8 -5 -13t-13 -5h-54v-529q0 -46 -26 -80t-63 -34h-464q-37 0 -63 33t-27 79v531h-53q-8 0 -13 5t-5 13
v36q0 8 5 13t13 5h172l39 93q9 21 31 35t44 15h178q22 0 44 -15t30 -35l39 -93h173q8 0 13 -5t5 -13z" />
    <glyph glyph-name="down-open" unicode="&#xe75c;" horiz-adv-x="928" 
d="M899 457q0 -29 -21 -50l-363 -363q-21 -22 -51 -22t-50 22l-363 363q-21 20 -21 50t21 51l41 42q22 20 51 20t50 -20l271 -271l271 271q21 20 50.5 20t50.5 -20l42 -42q21 -22 21 -51z" />
    <glyph glyph-name="left-open" unicode="&#xe75d;" horiz-adv-x="642" 
d="M414 -28l-364 364q-20 20 -20 50t20 51l364 363q21 20 51 20t50 -20l42 -42q21 -21 21 -51t-21 -50l-271 -271l271 -271q21 -21 21 -51t-21 -50l-42 -42q-21 -20 -50 -20t-51 20z" />
    <glyph glyph-name="right-open" unicode="&#xe75e;" horiz-adv-x="642" 
d="M613 386q0 -29 -20 -51l-364 -363q-21 -21 -50 -21t-51 21l-42 42q-21 21 -21 50.5t21 50.5l271 271l-271 270q-21 22 -21 51.5t21 49.5l42 42q20 21 51 21t50 -21l364 -363q20 -21 20 -50z" />
    <glyph glyph-name="up-open" unicode="&#xe75f;" horiz-adv-x="928" 
d="M899 171q0 -29 -21 -50l-42 -42q-21 -21 -50.5 -21t-50.5 21l-271 271l-271 -271q-20 -21 -50 -21t-50 21l-42 42q-21 20 -21 50t21 51l363 363q21 21 50 21t51 -21l363 -363q21 -21 21 -51z" />
    <glyph glyph-name="bookmark" unicode="&#xe760;" horiz-adv-x="360" 
d="M310 800q22 0 36 -15t14 -35v-850l-180 180l-180 -180v850q0 50 40 50h270z" />
    <glyph glyph-name="rocket" unicode="&#xe761;" horiz-adv-x="860" 
d="M543 236q6 -50 8 -81t-8 -59t-13 -40t-35 -32t-45 -26l-155 -68q-32 -12 -45 4t-3 44l40 110l-130 132l-106 -40q-28 -12 -43 2t-3 46l31 79q19 49 27 65l22 45q14 29 25 36t29 20t41 13h52l71 -6q10 14 29 39t77 85t118 104t145 75t165 19q8 0 14 -6q4 -4 6 -14
q10 -82 -18 -168t-76 -151t-98 -118t-86 -81zM593 532q22 -22 54 -22t54 23t22 55t-22 55t-54 23t-54 -23t-22 -55t22 -56z" />
    <glyph glyph-name="graduation-cap" unicode="&#xe762;" 
d="M166 238l334 -168l276 136l-14 -82q-2 -10 -11 -23t-24 -23t-45 -22q-40 -18 -80 -41t-63 -34t-39 -11t-40 13t-64 37t-80 40q-72 32 -103 69t-47 109zM976 484q24 -14 24 -33t-24 -33l-78 -44l-308 102q-22 36 -90 36q-40 0 -67 -16t-27 -40t27 -40t67 -16q26 0 36 4
l292 -68l-268 -152q-60 -32 -120 0l-416 234q-24 14 -24 33t24 33l416 234q60 32 120 0zM848 42q18 116 13 182t-19 90l-14 22l70 38q6 -8 12 -28t17 -101t-7 -197q-4 -26 -22 -30t-35 5t-15 19z" />
    <glyph glyph-name="mobile" unicode="&#xe763;" horiz-adv-x="580" 
d="M480 840q42 0 71 -29t29 -71v-780q0 -40 -29 -70t-71 -30h-380q-40 0 -70 30t-30 70v780q0 42 30 71t70 29h380zM290 -100q30 0 50 15t20 36t-20 35t-49 14t-50 -15t-21 -35t21 -35t49 -15zM500 50v660h-420v-660h420z" />
    <glyph glyph-name="lamp" unicode="&#xe764;" horiz-adv-x="700" 
d="M209 -110v104h282v-104q-70 -42 -142 -40q-70 -2 -140 40zM485 54h-270q0 72 -36 140t-78 113t-74 112t-26 139q8 120 94 206t255 86t254 -86t95 -206q4 -60 -16 -113t-52 -96t-65 -85t-57 -96t-24 -114zM107 550q-4 -4 0 -20t2 -20t5 -19t6 -18t8 -18l11 -19
q2 -4 13 -19l14 -19l31 -44q88 -122 112 -212h82q24 94 112 212l25 35q21 29 25 36l17 29q13 22 16 33t6 28t1 35q-16 196 -243 196t-243 -196z" />
    <glyph glyph-name="chart-line" unicode="&#xe765;" horiz-adv-x="1003" 
d="M34 284q-42 10 -32 56q10 42 54 32l98 -24l-52 -80zM924 272q14 12 33 11t31 -15q32 -32 -2 -64l-252 -226q-12 -12 -30 -12q-14 0 -28 10l-286 220l-54 14l50 80l36 -8q12 -4 16 -8l264 -204zM434 492l-350 -550q-12 -22 -38 -22q-12 0 -24 8q-16 10 -20 29t6 33
l374 588q8 16 28 20q18 6 36 -6l246 -156l226 326q10 16 28 19t34 -9q38 -24 12 -62l-252 -362q-24 -36 -62 -12z" />
    <glyph glyph-name="chart-bar" unicode="&#xe766;" horiz-adv-x="800" 
d="M750 800q22 0 36 -15t14 -35v-850h-200v850q0 50 40 50h110zM450 500q22 0 36 -15t14 -35v-550h-200v550q0 50 40 50h110zM150 200q22 0 36 -15t14 -35v-250h-200v250q0 50 40 50h110z" />
    <glyph glyph-name="droplet" unicode="&#xe767;" horiz-adv-x="560" 
d="M290 822q14 -118 60 -219t92 -159t82 -136t36 -160q0 -114 -83 -196t-197 -82t-197 82t-83 196q0 82 36 160t82 136t92 159t60 219q2 8 11 8t9 -8zM248 430q2 4 -2 14q-6 6 -14 6t-12 -6l-40 -58q-32 -46 -48 -70t-34 -75t-18 -101q0 -24 17 -41t41 -17q58 0 58 68
q0 94 42 246z" />
    <glyph glyph-name="water" unicode="&#xe768;" horiz-adv-x="940" 
d="M168 844q10 -86 50 -155t73 -123t33 -112q0 -66 -48 -113t-114 -47t-114 47t-48 113q0 58 33 112t73 123t50 155q2 4 7 4t5 -4zM784 844q10 -86 50 -155t73 -123t33 -112q0 -66 -48 -113t-114 -47t-114 47t-48 113q0 48 21 93t48 78t53 92t34 127q2 4 7 4t5 -4zM464 400
q2 4 7 4t5 -4q10 -86 50 -155t73 -123t33 -112q0 -66 -48 -113t-114 -47t-114 47t-48 113q0 58 33 112t73 123t50 155z" />
    <glyph glyph-name="trophy" unicode="&#xe769;" horiz-adv-x="900" 
d="M510 134v-66q70 -8 116 -32t46 -56q0 -36 -65 -63t-156 -27t-157 27t-66 63q0 32 46 56t118 32v66q0 50 -33 84t-113 88q-56 36 -87 61t-75 72t-64 108t-20 137q0 14 11 24t25 10h172q48 92 243 92t243 -92h170q14 0 25 -10t11 -24q0 -76 -20 -137t-64 -108t-75 -72
t-87 -61q-78 -52 -111 -87t-33 -85zM648 386q80 56 126 114t54 148h-126q-6 -158 -54 -262zM450 750q-62 0 -108 -15t-64 -32t-18 -30t18 -30t64 -32t108 -15t108 15t64 32t18 30t-18 30t-64 32t-108 15zM72 648q8 -90 54 -148t126 -114q-48 104 -54 262h-126z" />
    <glyph glyph-name="monitor" unicode="&#xe770;" 
d="M900 790q42 0 71 -30t29 -70v-550q0 -42 -29 -77t-69 -43l-218 -44l86 -38q50 -28 -20 -28h-500q-98 0 32 52l36 14l-220 44q-40 8 -69 43t-29 77v550q0 40 30 70t70 30h800zM900 144v556h-800v-556h800z" />
    <glyph glyph-name="globe" unicode="&#xe771;" horiz-adv-x="960" 
d="M480 830q200 0 340 -141t140 -340t-140 -339t-339 -140t-340 140t-141 339t141 340t339 141zM890 350q0 132 -78 239t-202 149q-18 -24 -16 -32q4 -38 18 -51t30 -7l32 12l20 2q22 -24 0 -47t-45 -56t-1 -77q34 -64 96 -64q28 -2 43 -36t17 -66q10 -80 -14 -140
q-22 -44 14 -76q86 112 86 250zM424 754q-112 -14 -199 -84t-127 -174q6 0 22 -2l28 -3q12 -1 26 -4t24 -8t12 -13q4 -12 -14 -45t-18 -62t38 -55t38 -46q0 -28 8 -68t8 -44q0 -12 36 -54t52 -42q10 0 11 22t-2 54t-3 40q0 32 13 74t60 70t55 46q16 34 9 61t-17 43t-34 28
t-41 17t-37 9t-22 4q-16 6 -42 7t-36 -3t-27 11t-17 29q0 10 15 27t35 37t28 30q8 14 17 21t22 16t27 21q4 4 25 17t27 23zM352 -40q66 -20 128 -20q128 0 226 68q-26 44 -118 34q-24 -2 -65 -17l-47 -17q-74 -16 -76 -16q-12 -2 -26 -14t-22 -18z" />
    <glyph glyph-name="book-open" unicode="&#xe772;" horiz-adv-x="900" 
d="M340 238v-68l-200 80v68zM340 446v-68l-200 80v68zM878 792q22 -12 22 -42v-640q0 -34 -32 -46l-398 -160q-8 -2 -10 -2t-5 -1t-5 -1t-5 1t-5 1l-10 2l-398 160q-32 12 -32 46v640q0 30 22 42q22 16 46 6l382 -154l382 154q24 10 46 -6zM400 4v560l-320 128v-560z
M820 132v560l-320 -128v-560zM760 318v-68l-200 -80v68zM760 526v-68l-200 -80v68z" />
    <glyph glyph-name="download" unicode="&#xe773;" 
d="M968 198q18 -10 27 -32t3 -40l-28 -154q-4 -20 -22 -33t-40 -13h-816q-22 0 -40 13t-22 33l-28 154q-10 48 32 72l158 108h98l-170 -130h178q8 0 12 -8l40 -110h300l40 110q8 8 12 8h178l-170 130h98zM760 520l-260 -244l-260 244h166v256h190v-256h164z" />
    <glyph glyph-name="upload" unicode="&#xe774;" 
d="M500 776l260 -244h-164v-256h-190v256h-166zM968 198q18 -10 27 -32t3 -40l-28 -154q-4 -20 -22 -33t-40 -13h-816q-22 0 -40 13t-22 33l-28 154q-10 48 32 72l158 108h98l-170 -130h178q8 0 12 -8l40 -110h300l40 110q8 8 12 8h178l-170 130h98z" />
    <glyph glyph-name="thumbs-up" unicode="&#xe776;" horiz-adv-x="800" 
d="M582 480q2 -6 58 -13t108 -24t52 -47q0 -72 -61 -284t-107 -212q-144 0 -288 42t-144 88v342q0 14 15 34t46 45t53 41t62 43l46 31q50 34 104 100l85 104q31 38 41 26q48 -76 29 -137t-59 -119t-40 -60zM150 476q14 0 0 -14q-50 -50 -50 -104v-318q0 -50 52 -104
q10 -10 -2 -10q-26 0 -55 8t-62 45t-33 99v242q0 62 33 100t63 47t54 9z" />
    <glyph glyph-name="thumbs-down" unicode="&#xe777;" horiz-adv-x="800" 
d="M218 218q-2 6 -57 13t-108 24t-53 47q0 72 62 285t106 213q144 0 288 -43t144 -89v-342q0 -10 -8 -24t-25 -30t-32 -29t-42 -32l-41 -29q-14 -10 -41 -28l-33 -22q-50 -34 -104 -100l-85 -104q-31 -38 -41 -26q-48 76 -29 137t59 119t40 60zM650 222q-12 0 2 14
q48 50 48 104v318q0 50 -52 104q-10 10 2 10q26 0 55 -8t62 -45t33 -99v-242q0 -48 -18 -81t-45 -48t-48 -21t-39 -6z" />
    <glyph glyph-name="megaphone" unicode="&#xe785;" 
d="M929 493q29 0 50 -21t21 -51t-21 -50t-50 -21v-214q0 -29 -22 -50t-50 -22q-233 194 -453 212q-32 -10 -51 -36t-17 -57t22 -51q-11 -19 -13 -37t4 -32t18 -31t27 -28t35 -28q-17 -32 -63 -46t-94 -7t-73 31q-4 13 -17 49t-18 53t-12 50t-9 56t2 55t12 62h-68
q-36 0 -63 26t-26 63v107q0 37 26 63t63 26h268q243 0 500 215q29 0 50 -22t22 -50v-214zM857 156v532q-220 -168 -428 -191v-151q210 -23 428 -190z" />
    <glyph glyph-name="lifebuoy" unicode="&#xe788;" horiz-adv-x="920" 
d="M454 810q190 2 326 -130t139 -322t-130 -327t-323 -140t-327 130t-140 323t131 327t324 139zM454 750q-94 0 -178 -44l62 -104q56 28 122 28t122 -28l62 104q-88 46 -190 44zM208 228q-28 60 -28 123t28 123l-102 62q-46 -88 -46 -190q2 -96 46 -180zM466 -50
q98 4 178 46l-62 104q-60 -30 -122 -30t-122 30l-62 -104q86 -46 190 -46zM460 130q92 0 156 65t64 156t-64 155t-156 64t-156 -64t-64 -155t64 -156t156 -65zM712 228l104 -62q46 96 44 190q0 96 -44 180l-104 -62q28 -60 28 -123t-28 -123z" />
    <glyph glyph-name="mouse" unicode="&#xe789;" horiz-adv-x="561" 
d="M551 130q28 -80 -17 -157t-139 -111q-94 -28 -175 9t-103 117l-106 384q-20 68 6 134t84 106l-96 186q-14 34 14 48q30 18 48 -14l98 -192q80 22 154 -16t102 -116zM227 404q28 10 40 36t3 54t-34 41t-53 4t-40 -35t-3 -54t34 -41t53 -5z" />
    <glyph glyph-name="suitcase" unicode="&#xe78e;" 
d="M900 650q42 0 71 -30t29 -70v-550q0 -42 -29 -71t-71 -29h-50v750h50zM0 550q0 40 30 70t70 30h50v-750h-50q-40 0 -70 29t-30 71v550zM670 754v-104h110v-750h-560v750h110v104q98 46 170 46t170 -46zM610 650v66q-52 24 -110 24q-54 0 -110 -24v-66h220z" />
    <glyph glyph-name="flow-cascade" unicode="&#xe790;" horiz-adv-x="640" 
d="M520 120q50 0 85 -35t35 -85t-35 -85t-85 -35q-80 0 -110 74h-164q-88 0 -131 54t-43 118v464q-72 34 -72 110q0 50 35 85t85 35t85 -35t35 -85q0 -76 -72 -110v-114q0 -78 78 -78h164q30 72 110 72q50 0 85 -35t35 -85t-35 -85t-85 -35q-80 0 -110 74h-164q-42 0 -78 16
v-194q0 -78 78 -78h164q30 72 110 72zM520 420q-28 0 -49 -20t-21 -49t21 -49t49 -20t49 20t21 49t-21 49t-49 20zM50 700q0 -28 21 -48t49 -20t49 20t21 49t-21 49t-49 20t-49 -20t-21 -50zM520 -68q28 0 49 20t21 49t-21 49t-49 20t-49 -20t-21 -49t21 -49t49 -20z" />
    <glyph glyph-name="brush" unicode="&#xe79a;" horiz-adv-x="962" 
d="M118 170q38 34 85 29t88 -45t47 -87t-30 -83q-86 -84 -228 -102q-84 -12 -80 14q0 4 6 10q52 60 64 145t48 119zM958 816q26 -26 -148 -248t-292 -338q-38 -38 -124 -104q-8 -6 -16 8q-18 34 -48 64q-32 32 -66 48q-16 6 -8 16q64 84 104 122q118 116 344 287t254 145z
" />
    <glyph glyph-name="paper-plane" unicode="&#xe79b;" horiz-adv-x="921" 
d="M894 720q14 4 22 -3t4 -19q-2 -6 -72 -310t-74 -316q-2 -14 -14 -19t-24 1l-278 150l22 26q388 420 394 426q4 4 -1 9t-9 1l-550 -402l-112 44l-190 76q-12 4 -12 12t12 12q8 4 441 157t441 155zM312 -8v204l160 -82q-130 -116 -142 -128q-18 -14 -18 6z" />
    <glyph glyph-name="magnet" unicode="&#xe7a1;" horiz-adv-x="820" 
d="M518 -44l16 164l260 -20l-16 -166q-4 -28 -32 -24l-200 16q-28 0 -28 30zM28 100l258 20l16 -164q2 -12 -6 -21t-22 -9l-198 -16q-12 -2 -22 6t-10 18zM2 370q-2 12 -2 34q0 160 120 273t290 113t290 -113t120 -273q0 -22 -2 -34l-16 -170l-258 22l16 170v12q0 58 -44 99
t-106 41t-106 -41t-44 -99v-12l16 -170l-258 -22z" />
    <glyph glyph-name="chart-pie" unicode="&#xe7a2;" horiz-adv-x="844" 
d="M449 251l292 292q103 -128 103 -293q0 -137 -73 -250q-11 -18 -32 -20t-35 13zM313 228l270 -271q-97 -72 -218 -72q-151 0 -258 107t-107 259q0 137 90 240t223 121v-384zM694 655l-278 -279v394q0 21 16 35t37 10q122 -23 221 -92q18 -12 18 -33t-14 -35z" />
    <glyph glyph-name="traffic-cone" unicode="&#xe7a3;" horiz-adv-x="961" 
d="M480 246q-90 0 -156 27t-70 65l56 158q10 -28 59 -46t112 -18t111 18t58 46l56 -158q-4 -38 -70 -65t-156 -27zM480 580q-96 0 -124 44l52 142q10 34 72 34t74 -34q12 -38 50 -142q-28 -44 -124 -44zM920 196q40 -16 41 -41t-37 -47l-352 -188q-38 -22 -91 -22t-91 22
l-354 188q-38 20 -36 46t42 42l188 76l-22 -60q0 -48 80 -82t192 -34t192 34t82 82l-22 60z" />
    <glyph glyph-name="cc" unicode="&#xe7a5;" horiz-adv-x="960" 
d="M474 830q198 2 340 -136t146 -336q2 -200 -136 -342t-338 -146q-198 -2 -341 137t-145 337q-4 200 135 342t339 144zM486 -28q156 2 266 114t108 270t-115 267t-270 107t-266 -114t-107 -270t114 -267t270 -107zM362 270q40 0 58 40l56 -30q-20 -36 -50 -52
q-32 -20 -70 -20q-62 0 -100 37t-38 105t38 106t96 38q86 0 124 -66l-62 -32q-10 20 -24 28t-28 8q-60 0 -60 -82q0 -38 14 -58q18 -22 46 -22zM628 270q42 0 56 40l58 -30q-18 -32 -50 -52t-70 -20q-64 0 -100 38q-38 36 -38 104q0 64 38 106q38 38 98 38q84 0 120 -66
l-60 -32q-10 20 -24 28t-28 8q-62 0 -62 -82q0 -36 16 -58t46 -22z" />
    <glyph glyph-name="pinterest" unicode="&#xe800;" horiz-adv-x="778" 
d="M320 190q-26 -130 -58 -211t-96 -129q-6 74 -7 120t11 110t22 104t26 99t24 99q-24 52 -19 116t48 106t99 20q40 -16 44 -59t-13 -95t-32 -103t-4 -90t63 -49q68 -14 121 38t74 131t11 163t-54 128q-62 64 -151 70t-163 -33t-120 -117t-32 -170q4 -22 22 -52t21 -47
t-17 -67q-146 34 -140 230q4 138 105 234t233 112q164 18 290 -57t144 -219q26 -176 -66 -317t-252 -129q-22 2 -42 9t-30 13t-31 21t-31 21z" />
    <glyph glyph-name="flight-1" unicode="&#xe801;" horiz-adv-x="785" 
d="M768 761q24 -29 7 -83t-61 -96l-90 -90l90 -388q3 -11 -7 -18l-71 -54q-4 -3 -11 -3h-4q-8 2 -12 9l-155 284l-145 -145l30 -108q3 -10 -5 -18l-53 -53q-5 -5 -13 -5h-1q-9 1 -14 7l-105 141l-141 105q-6 4 -7 12t5 15l54 54q5 5 12 5h5l108 -30l145 145l-284 155
q-8 5 -9 14t5 15l71 71q8 7 17 5l371 -89l89 89q43 42 96 60t83 -6z" />
    <glyph glyph-name="magnet-1" unicode="&#xe802;" horiz-adv-x="857" 
d="M857 386v-72q0 -112 -55 -202t-153 -140t-220 -51t-221 51t-153 140t-55 202v72q0 14 11 25t25 10h214q15 0 25 -10t11 -25v-72q0 -29 13 -50t30 -32t39 -16l36 -8q14 -3 25 -1t24 1t36 8t39 16t30 32t13 50v72q0 14 11 25t25 10h214q15 0 26 -10t10 -25zM286 743v-214
q0 -15 -11 -26t-25 -10h-214q-15 0 -25 10t-11 26v214q0 14 11 25t25 11h214q15 0 25 -11t11 -25zM857 743v-214q0 -15 -10 -26t-26 -10h-214q-14 0 -25 10t-11 26v214q0 14 11 25t25 11h214q15 0 26 -11t10 -25z" />
    <glyph glyph-name="search-1" unicode="&#xe803;" horiz-adv-x="928" 
d="M643 386q0 103 -74 176t-176 74t-177 -74t-73 -176t73 -177t177 -73t176 73t74 177zM929 -79q0 -29 -22 -50t-51 -21t-49 21l-191 191q-100 -69 -223 -69q-80 0 -153 31t-125 84t-84 125t-31 153t31 152t84 126t125 84t153 31t152 -31t126 -84t84 -126t31 -152
q0 -123 -69 -223l191 -191q21 -21 21 -51z" />
    <glyph glyph-name="calendar" unicode="&#xe804;" horiz-adv-x="928" 
d="M71 -79h161v161h-161v-161zM268 -79h178v161h-178v-161zM71 118h161v178h-161v-178zM268 118h178v178h-178v-178zM71 332h161v161h-161v-161zM482 -79h179v161h-179v-161zM268 332h178v161h-178v-161zM696 -79h161v161h-161v-161zM482 118h179v178h-179v-178zM286 600
v161q0 7 -6 12t-12 6h-36q-7 0 -12 -6t-6 -12v-161q0 -7 6 -13t12 -5h36q7 0 12 5t6 13zM696 118h161v178h-161v-178zM482 332h179v161h-179v-161zM696 332h161v161h-161v-161zM714 600v161q0 7 -5 12t-13 6h-35q-8 0 -13 -6t-5 -12v-161q0 -7 5 -13t13 -5h35q8 0 13 5t5 13
zM929 636v-715q0 -29 -22 -50t-50 -21h-786q-29 0 -50 21t-21 50v715q0 29 21 50t50 21h72v54q0 36 26 63t63 26h36q37 0 63 -26t26 -63v-54h214v54q0 36 27 63t63 26h35q37 0 63 -26t27 -63v-54h71q29 0 50 -21t22 -50z" />
    <glyph glyph-name="heart-1" unicode="&#xe806;" 
d="M500 -79q-14 0 -25 10l-348 336l-15 15q-10 10 -31 36t-38 55t-30 67t-13 77q0 123 71 192t196 70q34 0 70 -12t67 -33t54 -38t42 -38q20 20 42 38t54 38t67 33t70 12q125 0 196 -70t71 -192.5t-128 -250.5l-347 -335q-10 -10 -25 -10z" />
    <glyph glyph-name="star-1" unicode="&#xe807;" horiz-adv-x="928" 
d="M929 489q0 -12 -15 -27l-203 -197l48 -279q1 -4 1 -12q0 -11 -6 -19t-16.5 -8.5t-22.5 6.5l-251 132l-250 -132q-13 -7 -23.5 -7t-16.5 9t-6 19q0 4 1 12l48 279l-203 197q-14 15 -14 27q0 21 31 26l280 40l126 254q11 23 27 23t28 -23l125 -254l280 -40q32 -5 32 -26z
" />
    <glyph glyph-name="star-empty-1" unicode="&#xe808;" horiz-adv-x="928" 
d="M634 290l171 165l-235 35l-106 213l-105 -213l-236 -35l171 -165l-41 -235l211 111l211 -111zM929 489q0 -12 -15 -27l-203 -197l48 -279q1 -4 1 -12q0 -28 -23 -28q-10 0 -22 7l-251 132l-250 -132q-13 -7 -23.5 -7t-16.5 9t-6 19q0 4 1 12l48 279l-203 197
q-14 15 -14 27q0 21 31 26l280 40l126 254q11 23 27 23t28 -23l125 -254l280 -40q32 -5 32 -26z" />
    <glyph glyph-name="camera-1" unicode="&#xe809;" horiz-adv-x="1071" 
d="M536 475q66 0 113 -47t47 -114t-47 -113t-113 -47t-114 47t-47 113t47 114t114 47zM929 707q59 0 101 -42t41 -101v-500q0 -59 -41 -101t-101 -42h-786q-59 0 -101 42t-42 101v500q0 59 42 101t101 42h125l28 76q11 27 39 47t58 20h286q29 0 57 -20t39 -47l29 -76h125z
M536 64q103 0 176 74t74 176t-74 177t-176 73t-177 -73t-73 -177t73 -176t177 -74z" />
    <glyph glyph-name="picture-1" unicode="&#xe80a;" horiz-adv-x="1071" 
d="M357 529q0 -45 -31 -76t-76 -32t-76 32t-31 76t31 75t76 32t76 -32t31 -75zM929 314v-250h-786v107l178 179l90 -89l285 285zM982 707h-893q-7 0 -12 -5t-6 -13v-678q0 -8 6 -13t12 -5h893q7 0 13 5t5 13v678q0 7 -5 13t-13 5zM1071 689v-678q0 -37 -26 -63t-63 -27h-893
q-36 0 -63 27t-26 63v678q0 37 26 63t63 27h893q37 0 63 -27t26 -63z" />
    <glyph glyph-name="link-1" unicode="&#xe80b;" horiz-adv-x="928" 
d="M812 171q0 23 -15 38l-116 116q-16 16 -39 16t-39 -18l22 -22q3 -3 9 -11t7 -14l2 -15q0 -23 -16 -38t-38 -16q-8 0 -15 2t-14 7t-11 9l-22 22q-19 -17 -19 -40t16 -38l115 -116q15 -15 37.5 -15t38.5 15l82 81q15 16 15 37zM420 565q0 22 -15 38l-115 115q-16 16 -38 16
t-38 -15l-82 -82q-16 -15 -16 -37t16 -38l116 -116q15 -15 38 -15t40 17l-23 23q-3 3 -8 10t-7 14t-2 16q0 22 15 38t38 15q9 0 16 -2t14 -7t10 -8l23 -23q18 17 18 41zM920 171q0 -67 -48 -113l-82 -81q-46 -47 -113.5 -47t-113.5 48l-115 115q-46 47 -46 114.5t49 115.5
l-49 49q-48 -49 -115.5 -49t-114.5 47l-116 116q-47 47 -47 114t47 113l82 82q47 46 114 46t114 -47l114 -116q47 -46 47 -114t-49 -116l49 -49q48 49 115.5 49t114.5 -47l116 -116q47 -47 47 -114z" />
    <glyph glyph-name="eye-1" unicode="&#xe80c;" 
d="M929 314q-85 132 -213 197q34 -58 34 -125q0 -104 -73 -177t-177 -73t-177 73t-73 177q0 67 34 125q-128 -65 -213 -197q75 -114 187 -182t242 -68t242 68t187 182zM527 529q0 11 -8 19t-19 7q-70 0 -120 -50t-50 -119q0 -12 8 -19t19 -8t19 8t8 19q0 48 34 82t82 34
q11 0 19 8t8 19zM1000 314q0 -19 -11 -38q-78 -129 -210 -206t-279 -77t-279 77t-210 206q-11 19 -11 38t11 39q78 128 210 205t279 78t279 -78t210 -205q11 -20 11 -39z" />
    <glyph glyph-name="pencil-1" unicode="&#xe80d;" horiz-adv-x="857" 
d="M203 -7l50 51l-131 131l-51 -51v-60h72v-71h60zM494 511q0 12 -12 12q-5 0 -9 -4l-303 -302q-4 -4 -4 -10q0 -12 13 -12q5 0 9 4l303 302q3 4 3 10zM464 618l232 -232l-464 -465h-232v233zM845 564q0 -29 -20 -50l-93 -93l-232 233l93 92q20 21 49.5 21t51.5 -21
l131 -131q20 -22 20 -51z" />
    <glyph glyph-name="location-1" unicode="&#xe80e;" horiz-adv-x="571" 
d="M429 493q0 59 -42 101t-101 42t-101 -42t-42 -101t42 -101t101 -42t101 42t42 101zM571 493q0 -61 -18 -100l-203 -432q-9 -18 -27 -29t-37 -11t-38 11t-26 29l-204 432q-18 39 -18 100q0 118 84 202t202 84t202 -84t83 -202z" />
    <glyph glyph-name="chat-1" unicode="&#xe80f;" 
d="M786 421q0 -77 -53 -143t-143 -104t-197 -38q-48 0 -98 9q-70 -49 -155 -72q-21 -5 -48 -9h-2q-6 0 -12 5t-6 12q-1 1 -1 3t1 4t1 3l1 3l4 6l3 3q3 3 2 2l28 30q5 5 12 17t14 21t11 25q-69 40 -108 98t-40 125q0 78 53 144t143 104t197 38t197 -38t143 -104t53 -144z
M1000 279q0 -67 -40 -126t-108 -98q5 -14 11 -25t14 -21l27 -33q9 -11 13 -14l5 -5l4 -6l3 -10q0 -1 -1 -3q-2 -8 -7 -13t-13 -4q-27 4 -48 9q-85 23 -155 72q-50 -9 -98 -9q-151 0 -263 74q32 -3 49 -3q90 0 172 25t148 72q69 52 107 119t37 141q0 43 -13 85
q72 -39 114 -99t42 -128z" />
    <glyph glyph-name="help-circled" unicode="&#xe810;" horiz-adv-x="920" 
d="M454 810q190 2 326 -130t139 -322t-130 -327t-323 -140t-327 130t-140 323t131 327t324 139zM452 70q30 0 49 19t19 47q2 30 -17 49t-49 19h-2q-28 0 -47 -18t-21 -46q0 -30 19 -49t47 -21h2zM618 398q26 34 26 78q0 78 -53 116t-135 38q-64 0 -104 -26q-68 -42 -72 -146
v-4h110v4q0 26 16 54q16 24 55 24t51 -20q16 -20 16 -44q0 -18 -16 -40q-8 -12 -20 -20l-22 -15q-10 -7 -20 -15l-21 -17q-11 -9 -17 -17q-14 -20 -18 -78v-8h108v4q0 12 4 28q6 20 28 36l28 18q46 34 56 50z" />
    <glyph glyph-name="thumbs-down-1" unicode="&#xe811;" horiz-adv-x="857" 
d="M143 600q0 15 -11 25t-25 11t-25 -11t-11 -25t11 -25t25 -11t25 11t11 25zM786 279q0 19 -12 45t-30 26q8 10 14 27t5 30q0 39 -29 67q10 18 10 38t-10 41t-26 30q2 16 2 31q0 47 -27 70t-76 23h-71q-73 0 -191 -41l-16 -6q-13 -5 -20 -7l-41 -12l-18 -4q-10 -2 -18 -1
h-18v-358h18q9 0 20 -5t22 -15t22 -19t22 -25t19 -24t18 -23t13 -16q30 -38 43 -51q23 -24 33 -61t17 -70t21 -48q54 0 72 27t17 81q0 32 -26 89t-27 89h196q28 0 50 22t22 49v1zM857 278q0 -57 -42 -100t-101 -42h-98q27 -55 27 -107q0 -66 -19.5 -104.5t-57.5 -56.5
t-84 -18q-28 0 -50 21q-19 18 -30 45t-14 51t-10 47t-17 36q-27 28 -60 71q-57 73 -77 86h-153q-29 0 -50 21t-21 51v357q0 29 21 50t50 21h161q12 0 77 22q72 25 125 37t111 13h63q78 0 126 -45t48 -120v-3q33 -43 33 -99q0 -13 -1 -24q21 -38 21 -81q0 -20 -5 -38
q27 -41 27 -91z" />
    <glyph glyph-name="thumbs-up-1" unicode="&#xe812;" horiz-adv-x="857" 
d="M143 100q0 15 -11 25t-25 11t-25 -11t-11 -25t11 -25t25 -11t25 11t11 25zM786 421q0 29 -22 50t-50 22h-196q0 32 27 89t26 89q0 55 -17 81t-72 27q-14 -15 -21 -48t-17 -70t-33 -61q-13 -13 -43 -51l-13 -17q-11 -14 -18 -22t-19 -24t-22 -25l-22 -19q-12 -10 -22 -16
t-20 -5h-18v-357h18q7 0 18 -1t18 -4t21 -6t20 -7t20 -7t16 -5q118 -41 191 -41h67q107 0 107 93q0 15 -2 31q16 9 26 30t10 41t-10 38q29 28 29 67q0 13 -5 31t-14 26q18 1 30 26t12 45zM857 422q0 -50 -27 -91q5 -18 5 -38q0 -43 -21 -81q1 -12 1 -24q0 -56 -33 -99
q0 -78 -48 -123t-126 -45h-72q-54 0 -106 13t-121 36q-65 23 -77 23h-161q-29 0 -50 21t-21 50v357q0 30 21 51t50 21h153q20 13 77 86q32 42 60 72q13 14 19 47t17 71t35 60q22 21 50 21q47 0 84 -18t57 -57t20 -104q0 -51 -27 -107h98q58 0 101 -42t42 -100z" />
    <glyph glyph-name="print-1" unicode="&#xe813;" horiz-adv-x="928" 
d="M214 -7h500v143h-500v-143zM214 350h500v214h-89q-22 0 -38 16t-16 38v89h-357v-357zM857 314q0 15 -10 25t-26 11t-25 -11t-10 -25t10 -25t25 -10t26 10t10 25zM929 314v-232q0 -7 -6 -12t-12 -6h-125v-89q0 -22 -16 -38t-38 -16h-536q-22 0 -37 16t-16 38v89h-125
q-7 0 -13 6t-5 12v232q0 44 32 76t75 31h36v304q0 22 16 38t37 16h375q23 0 50 -12t42 -26l85 -85q15 -16 27 -43t11 -49v-143h35q45 0 76 -31t32 -76z" />
    <glyph glyph-name="gauge-1" unicode="&#xe814;" 
d="M406 178q34 56 214 284t194 220q12 -6 -96 -278t-138 -326q-50 -86 -136 -36t-38 136zM500 558q-168 0 -284 -127t-116 -311q0 -30 2 -46q2 -22 -12 -37t-34 -17t-36 12t-18 34q0 8 -1 26t-1 28q0 226 145 382t355 156q72 0 134 -18l-70 -86q-40 4 -64 4zM862 496
q138 -154 138 -376q0 -38 -2 -57t-16 -32t-34 -13h-4q-22 4 -35 20t-11 36q2 14 2 46q0 150 -80 268q6 14 20 51z" />
    <glyph glyph-name="lock" unicode="&#xe815;" horiz-adv-x="642" 
d="M179 421h285v108q0 59 -42 101t-101 41t-101 -41t-41 -101v-108zM643 368v-322q0 -22 -16 -37t-38 -16h-535q-23 0 -38 16t-16 37v322q0 22 16 38t38 15h17v108q0 102 74 176t176 74t177 -74t73 -176v-108h18q23 0 38 -15t16 -38z" />
    <glyph glyph-name="pin" unicode="&#xe816;" horiz-adv-x="642" 
d="M268 368v250q0 8 -5 13t-13 5t-13 -5t-5 -13v-250q0 -8 5 -13t13 -5t13 5t5 13zM643 171q0 -14 -11 -25t-25 -10h-239l-29 -270q-1 -7 -6 -11t-11 -5h-1q-15 0 -17 15l-43 271h-225q-15 0 -25 10t-11 25q0 69 44 124t99 55v286q-29 0 -50 21t-22 50t22 50t50 22h357
q29 0 50 -22t21 -50t-21 -50t-50 -21v-286q55 0 99 -55t44 -124z" />
    <glyph glyph-name="chart-bar-2" unicode="&#xe817;" horiz-adv-x="834" 
d="M521 740v-625h-208v625q0 44 30 74t73.5 30.5t74.5 -30.5t30 -74zM781 533v-418h-208v418q0 42 30 73t75 30q42 0 73 -30t30 -73zM260 376v-261h-207v261q0 43 30 73t73 31t74 -31t30 -73zM781 -41q22 0 37 -15t16 -37t-16 -36t-37 -16h-728q-22 0 -37 16t-16 36t16 37
t37 15h728z" />
    <glyph glyph-name="chart" unicode="&#xe818;" horiz-adv-x="835" 
d="M40 217q-34 28 -39 70t22 76l209 260q26 33 68 38t76 -19l127 -96l145 181q28 34 70 39t77 -23t38 -70t-22 -76l-208 -260q-26 -32 -68 -38t-75 19l-128 97l-146 -182q-30 -40 -81 -40q-35 0 -65 24zM53 -67q-21 0 -37 16t-15 37t15 36t37 15h729q21 0 37 -15t16 -36
t-16 -37t-37 -16h-729z" />
    <glyph glyph-name="fast-food" unicode="&#xe819;" horiz-adv-x="950" 
d="M350 675q-117 -1 -206 -53t-94 -147v-100h850v100q-5 95 -94 147t-206 53h-250zM375 625q11 0 18 -7t7 -18t-7 -18t-18 -7t-18 7t-7 18t7 18t18 7zM575 625q11 0 18 -7t7 -18t-7 -18t-18 -7t-18 7t-7 18t7 18t18 7zM275 525q11 0 18 -7t7 -18t-7 -18t-18 -7t-18 7t-7 18
t7 18t18 7zM475 525q11 0 18 -7t7 -18t-7 -18t-18 -7t-18 7t-7 18t7 18t18 7zM675 525q11 0 18 -7t7 -18t-7 -18t-18 -7t-18 7t-7 18t7 18t18 7zM50 325q-20 -1 -34.5 -15.5t-14.5 -34.5t14.5 -34.5t34.5 -15.5h850q20 1 34.5 15.5t14.5 34.5t-14.5 34.5t-34.5 15.5h-850z
M50 175v-50q2 -39 31.5 -68.5t68.5 -31.5h650q39 2 68.5 31.5t31.5 68.5v50h-850z" />
    <glyph glyph-name="ferry" unicode="&#xe81a;" horiz-adv-x="850" 
d="M300 850q-21 0 -35 -14t-15 -36h-100q-21 0 -35 -14t-15 -36v-303l-100 -47l100 -200v-100l159 -47q9 -3 16.5 -2.5t15.5 2.5l134 47l134 -47q9 -3 16.5 -2.5t15.5 2.5l159 47v100l100 200l-100 47v303q0 22 -14 36t-36 14h-100q0 22 -14 36t-36 14h-250zM200 700h450
v-206l-175 81l-50 25l-50 -25l-175 -81v206zM100 0q-9 -1 -16 -3l-84 -28v-102l100 33l159 -47q9 -3 16.5 -2.5t15.5 2.5l134 47l134 -47q9 -3 16.5 -3t15.5 3l159 47l100 -33v102l-84 28q-8 2 -15.5 2t-16.5 -2l-159 -47l-134 47q-9 3 -16.5 2.5t-15.5 -2.5l-134 -47
l-159 47q-9 3 -16 3z" />
    <glyph glyph-name="fire-station" unicode="&#xe81b;" horiz-adv-x="850" 
d="M425 775l-175 -250l-100 150q-31 -46 -87.5 -140.5t-62.5 -209.5q6 -170 129.5 -283t295.5 -117q172 4 295.5 117t129.5 283q-6 115 -62.5 209.5t-87.5 140.5l-100 -150zM425 375q11 -5 87.5 -81.5t87.5 -168.5q-2 -39 -50 -68.5t-125 -31.5q-77 2 -125 31.5t-50 68.5
q11 89 87.5 167t87.5 83z" />
    <glyph glyph-name="fuel" unicode="&#xe81c;" horiz-adv-x="750" 
d="M50 800q-21 0 -35 -14t-15 -36v-800q1 -20 15.5 -34.5t34.5 -15.5h450q20 1 34.5 15.5t15.5 34.5v250h25q18 -2 22 -12.5t3 -12.5v-100q0 -75 75 -75t75 75v275q-6 38 -50 75.5t-50 74.5v150h-50l-50 50v50q0 22 -14 36t-36 14h-450zM100 700h350v-200h-350v200zM550 550
h50v-75q6 -37 50 -74.5t50 -75.5v-250q-2 -18 -12.5 -22t-12.5 -4t-12.5 4t-12.5 22v125q-1 20 -15.5 34.5t-34.5 15.5h-50v300z" />
    <glyph glyph-name="bicycle" unicode="&#xe81d;" horiz-adv-x="950" 
d="M625 700l-25 -50l100 -37v-113h-350v50h50v25q0 9 -8 17t-17 8h-125q-18 -2 -22 -12.5t-3 -12.5v-25h75v-50l-53 -106q-23 5 -47 6q-85 -2 -141.5 -58.5t-58.5 -141.5q2 -85 58.5 -141.5t141.5 -58.5q85 2 141.5 58.5t58.5 141.5h75q18 2 22 12.5t3 12.5q4 56 29.5 98
t62.5 71q52 39 108 50v-52q-66 -18 -107.5 -69.5t-42.5 -122.5q2 -85 58.5 -141.5t141.5 -58.5q85 2 141.5 58.5t58.5 141.5q-1 69 -41 120.5t-104 70.5l-55 109v125q0 12 -7.5 22t-17.5 14zM350 450h225q-41 -24 -81.5 -90.5t-43.5 -109.5h-58q-9 37 -30 67t-53 50z
M200 325q53 -1 88.5 -36.5t36.5 -88.5q-1 -53 -36.5 -88.5t-88.5 -36.5q-53 1 -88.5 36.5t-36.5 88.5q1 53 36.5 88.5t88.5 36.5zM750 325q53 -1 88.5 -36.5t36.5 -88.5q-1 -53 -36.5 -88.5t-88.5 -36.5q-53 1 -88.5 36.5t-36.5 88.5q1 53 36.5 88.5t88.5 36.5z" />
    <glyph glyph-name="college" unicode="&#xe81e;" horiz-adv-x="950" 
d="M475 700l-475 -250l475 -250l275 139v-189q6 -72 50 -87.5t50 -12.5v50q-3 -1 -25 7.5t-25 42.5v217l150 83zM250 250v-100q0 -19 12.5 -40t37.5 -35l175 -75l150 75q27 14 51 35t24 40v100l-225 -109z" />
    <glyph glyph-name="cinema" unicode="&#xe81f;" horiz-adv-x="800" 
d="M700 775l-112 -33l54 -148l108 31zM519 723l-147 -42l3 -6l28 -77l25 -65l147 42zM305 663l-130 -38l56 -148l130 37l-33 84zM108 606l-108 -31l50 -150l113 33zM50 425v-450q1 -21 15 -35t35 -15h650q22 1 36 15t14 35v450h-750zM150 325h550v-150h-550v150z" />
    <glyph glyph-name="key-1" unicode="&#xe820;" horiz-adv-x="780" 
d="M774 612q20 -116 -28 -215t-150 -117q-66 -12 -130 -2l-118 -194l-70 -12l-104 -166q-14 -28 -46 -32l-76 -14q-12 -4 -22 4t-12 22l-16 98q-8 30 12 56l258 386q-24 50 -38 120q-18 106 53 187t185 101q106 20 195 -45t107 -177zM648 536q30 44 21 97t-51 84t-92 21
t-80 -54q-8 -12 -12 -23t-1 -20l5 -16q2 -7 13 -17t18 -15l67 -49q16 -12 23 -16t19 -12t19 -8t17 1t18 8t16 19z" />
    <glyph glyph-name="megaphone-1" unicode="&#xe821;" horiz-adv-x="860" 
d="M792 500q58 -138 67 -258t-39 -140q-28 -12 -61 3t-65 40t-99 41t-149 8q-28 -4 -42 -19t-6 -37q22 -56 46 -108q4 -10 24 -22t24 -20q14 -34 -22 -46q-50 -22 -102 -40q-30 -10 -54 42q-32 76 -58 132q-6 12 -34 17t-46 31q-30 -10 -38 -14q-34 -12 -74 12t-54 60
q-17 32 -5 79t43 61q126 52 213 108t124 103t59 92t25 78t15 59t36 36q48 20 130 -70t142 -228zM764 200q8 4 10 38t-11 98t-41 129t-67 122t-67 84t-36 23t-10 -42t10 -105t40 -133t68 -119t68 -76t36 -19z" />
    <glyph glyph-name="credit-card-1" unicode="&#xe822;" 
d="M900 700q42 0 71 -30t29 -70v-500q0 -42 -29 -71t-71 -29h-800q-40 0 -70 29t-30 71v500q0 40 30 70t70 30h800zM900 100v300h-800v-300h800zM900 550v50h-800v-50h800zM200 294h30v-30h-30v30zM380 234h30v30h30v30h60v-30h-30v-30h-30v-30h-60v30zM500 204h-30v30h30
v-30zM350 204h-60v30h60v-30zM380 264v-30h-30v60h60v-30h-30zM260 234v-30h-60v30h30v30h30v30h60v-30h-30v-30h-30z" />
    <glyph glyph-name="tag-1" unicode="&#xe823;" horiz-adv-x="857" 
d="M250 600q0 30 -21 51t-50 20t-51 -20t-21 -51t21 -50t51 -21t50 21t21 50zM845 279q0 -30 -20 -51l-274 -274q-22 -21 -51.5 -21t-49.5 21l-399 399q-21 21 -36 57t-15 65v232q0 29 21 50t50 22h233q29 0 65 -15t57 -36l399 -399q20 -21 20 -50z" />
    <glyph glyph-name="home-1" unicode="&#xe824;" horiz-adv-x="928" 
d="M786 296v-267q0 -15 -11 -26t-25 -10h-214v214h-143v-214h-214q-15 0 -25 10t-11 26v271l321 264l321 -264q1 -1 1 -4zM910 335l-34 -41q-5 -5 -12 -6h-2q-7 0 -12 3l-386 322l-386 -322q-7 -4 -13 -4q-7 2 -12 7l-35 41q-4 5 -3 13t6 12l401 334q18 15 42 15t43 -15
l136 -114v109q0 8 5 13t13 5h107q8 0 13 -5t5 -13v-227l122 -102q5 -5 6 -12t-4 -13z" />
    <glyph glyph-name="globe-1" unicode="&#xe825;" horiz-adv-x="857" 
d="M429 779q116 0 215 -58t156 -156t57 -215t-57 -215t-156 -156t-215 -58t-216 58t-155 156t-58 215t58 215t155 156t216 58zM581 488l-5 -5t-7 -6q1 0 2 3t3 6t2 4q3 4 11.5 8t29.5 7q19 5 29 -6q-1 1 5 7t8 7t8 2t9 5l1 12q-7 -1 -10 4t-3 12q0 -2 -4 -5q0 4 -2 5t-7 -1
t-5 -1q-5 2 -8 5t-5 9t-2.5 8.5t-4.5 5.5t-5 6l-6 10q-1 1 -3 1t-4 -3t-4 -5t-2 -3q-2 1 -4 1t-2 -1t-3 -2t-3.5 -2t-3.5 -1t-5 -1q8 3 -1 6q-5 2 -9 1q5 3 5 7t-5 8h3q-1 2 -5 5t-10 4t-7 4q-5 3 -19 5t-17.5 -0.5t-3.5 -4.5t2 -8l2 -7q1 -4 -3 -7t-3.5 -7t7.5 -9t6 -12
q-2 -4 -9 -9l-9 -6q-3 -5 -1 -11t6 -9q1 -1 1 -2t-2 -3t-3 -2t-4 -2l-1 -1q-7 -3 -12 3t-7 15q-4 14 -9 17q-13 4 -17 -1q-2 7 -22 15q-14 5 -33 2q4 0 0 8.5t-10 6.5q1 3 2 10t0 7q2 7 7 13l9 12q2 3 1 4q19 -3 28 6q2 2 6 9l6 10q5 3 8 3t8 -3t8 -3q8 -1 8 6t-4 11
q7 0 2 10q-3 4 -5 5q-6 2 -15 -3q-4 -2 2 -4q-1 0 -6 -6l-9 -10q-4 -4 -9 3l-3 7q-3 7 -5 8q-5 0 -9 -9q1 5 -6 9t-14 4q11 7 -4 15q-4 3 -12 3t-11 -2l-3 -7q-1 -3 3 -4t6 -3t6 -2t5 -2q8 -6 5 -8q-1 0 -5 -2t-6 -2t-4 -2.5t0 -7.5t-1 -8q-3 3 -5 10t-4 9q4 -5 -14 -4l-5 1
q-3 0 -9 -1t-12 -1t-7 5q-3 4 0 11q0 2 2 1l-12 10q-25 -8 -52 -23q3 0 6 1l8 3q5 2 5 4q19 7 24 3l3 3l11 -14q-4 3 -17 1q-11 -4 -12 -7q4 -7 2 -10l-6 6q-4 4 -8 6t-8 3q-9 0 -13 -1q-81 -45 -131 -124q4 -4 6.5 -4.5t3.5 -4.5t1 -6t6 1q5 -4 2 -10q1 0 25 -15
q10 -10 11 -12q2 -6 -5 -10l-5 5q-4 4 -5.5 1.5t0.5 -9.5t6 -7q-4 0 -5 -9l-2 -20q-1 -11 0 -13l1 -1q-2 -6 3 -19t12 -11q-7 -1 11 -24l4 -5l7 -4l9 -6q4 -3 5.5 -5.5t5.5 -12.5t8 -13q-2 -3 5 -11t6 -13q-1 0 -2 -1t-1 0q2 -4 9 -8t8 -6.5t1 -6.5t2 -6t4 -1q2 11 -13 34
q-8 14 -9.5 16.5t-3.5 8.5t-2 8h3q2 0 5 -2l5 -4q-1 -4 1 -10t7 -10t10 -11t6 -7q4 -4 8 -11t0 -8q5 0 11 -5t9.5 -10.5t4.5 -15.5t2.5 -13.5t5.5 -7.5t7 -5l9 -5l7 -3l22 -13q6 -2 9 -2t8 1l8 2q8 1 16 -8t12 -12q20 -10 30 -6q-1 0 1 -4l4 -9q2 -5 5 -8t3 -5q3 -3 10 -8
t10 -8q4 2 4 5q-1 -5 4 -11t10 -6q8 2 8 18q-17 -9 -27 10l-2 3q-2 3 -2 5t-1 4t0 5t2 1q5 0 6 2t-1 7t-2.5 8.5t-5.5 10.5t-7 8q-3 -5 -9 -4t-9 5q0 -1 -1 -3t-1 -4h-8q1 2 1 10t2 13l8 15q3 5 2 7l-3 5q-2 3 -9 1q-11 0 -15 -11q-1 -2 -2 -6t-2 -6t-5 -4t-14 -1t-13 3
q-8 4 -13 16t-5 19t1 16l2 14q1 5 -3 14q2 1 5 5l5 6q2 1 3 1h2q1 0 3 1t1.5 2.5t-2.5 2.5l-2 1q4 -1 16 1t15 -1q9 -6 12 1l-1 6q-1 5 0 7q3 -15 16 -5q2 -1 9 -3t9 -2.5t4 -2.5l3 -3q1 -1 3 0t5 4q5 -8 7 -13q6 -23 10 -25t6 -1t3 5t0 8t-1 7l-1 4v15q-8 2 -10 7t0 10
t9 10q0 1 4 2t9 4l7 4q12 11 8 20q4 0 6 5l-2 2q-2 2 -5 2t-2 2q5 2 1 8q3 2 4 7t4 5q5 -7 12 -1q4 5 1 9q2 4 11 6t10 5q4 -1 5 1t0 7t1.5 7t8.5 5t8 2l9 7q2 2 0 2q10 -1 18 6q5 6 -4 11q2 3 -2 5t-8 3q2 1 7 1t5 1q9 5 -4 9q-9 2 -24 -7zM491 -2q114 21 195 106
q-1 2 -7 2t-7 2l-13 5q1 4 -1 7t-5 5l-21 15q-1 1 -4 2l-5 2q-2 1 -5 -1l-2 -1q-2 0 -3 -1l-5 -3v-2q-12 10 -20 13q-3 0 -7 3l-5 4q-1 1 -6 0t-6 -4q-3 -2 -4 -8l-1 -7q-4 3 0 10t2 10t-7 2t-6 -2l-7 -5q-6 -4 -5 -3t-4 -3t-5 -5q-2 -2 -4 -6t-2 -7q-1 3 -7 4t-5 3
q1 -5 2 -19t3 -22q4 -17 -7 -26q-15 -14 -16 -23q-2 -12 7 -14q0 -4 -5 -12t-4.5 -11.5t2.5 -9.5z" />
    <glyph glyph-name="infinity" unicode="&#xe826;" 
d="M796 570q84 0 144 -53t60 -166t-60 -167t-144 -54q-78 0 -157 40t-139 106q-58 -66 -137 -106t-157 -40q-86 0 -146 54t-60 167t60 166t146 53q78 0 157 -39t137 -105q58 66 138 105t158 39zM206 218q60 0 127 37t113 95q-46 58 -112 95t-128 37q-114 0 -114 -132
t114 -132zM796 218q114 0 114 132t-114 132q-62 0 -129 -37t-111 -95q44 -58 111 -95t129 -37z" />
    <glyph glyph-name="bucket" unicode="&#xe827;" horiz-adv-x="913" 
d="M522 780q174 0 286 -49t104 -105l-92 -588q-2 -18 -37 -44t-107 -50t-154 -24t-153 24t-106 50t-37 44l-4 30q82 -6 163 35t139 117q28 0 48 20t20 49t-20 50t-49 21t-50 -21t-21 -49q0 -20 10 -36q-48 -58 -115 -89t-131 -27q-102 10 -157 57t-59 109q-8 122 156 184
q-18 94 -22 138q-8 56 104 105t284 49zM70 310q4 -32 37 -59t91 -39l-32 204q-100 -44 -96 -106zM522 522q82 0 157 18t113 39t38 35t-38 35t-112 39t-157 18t-157 -18t-112 -39t-38 -35t38 -35t112 -39t156 -18z" />
    <glyph glyph-name="mute" unicode="&#xe828;" horiz-adv-x="884" 
d="M868 778q16 -16 16 -36t-16 -36l-782 -782q-18 -14 -35 -14t-34 14t-17 36t16 36l782 782q34 32 70 0zM652 392l50 50q74 -92 101 -172t-7 -116q-24 -24 -75 -57t-131 -71t-161 -45t-165 23l278 276q44 -32 88 -54t67 -25t33 1q6 10 2 34t-26 68t-54 88zM376 454
l-270 -270q-40 132 28 283t132 215q34 32 105 11t159 -85l-52 -50q-58 38 -105 53t-57 5q-4 -8 -2 -28t19 -58t43 -76z" />
    <glyph glyph-name="sound" unicode="&#xe829;" horiz-adv-x="910" 
d="M176 588q42 42 149 -5t217 -157t157 -217t5 -149q-28 -28 -92 -67t-156 -78t-194 -29t-176 84t-84 176t29 194t78 156t67 92zM640 108q8 10 -3 49t-49 101t-96 118q-56 58 -118 96t-101 49t-49 3q-8 -10 3 -49t49 -101t94 -120q58 -56 120 -94t101 -49t49 -3zM646 502
q-18 0 -34 15t-16 36t16 35l94 96q36 32 72 0q32 -36 0 -72l-96 -94q-16 -16 -36 -16zM466 626q-18 10 -23 30t5 38l54 96q26 44 68 20q18 -10 23 -30t-5 -38l-54 -96q-14 -26 -42 -26q-14 0 -26 6zM904 476q10 -18 4 -38t-24 -30l-96 -54q-16 -8 -24 -8q-28 0 -44 26
q-10 18 -4 38t24 30l96 54q18 10 38 5t30 -23z" />
    <glyph glyph-name="volume" unicode="&#xe82a;" horiz-adv-x="896" 
d="M896 180q0 -34 -24 -57t-56 -23h-780q-22 0 -31 5t-3 15t24 20l802 452q28 18 48 7t20 -45v-374z" />
    <glyph glyph-name="hourglass" unicode="&#xe82b;" horiz-adv-x="560" 
d="M560 622q0 -44 -48 -96t-97 -99t-49 -77t49 -76t97 -97t48 -97v-118q0 -34 -86 -73t-194 -39t-194 39t-86 73v118q0 46 48 97t97 97t49 76t-49 77t-97 99t-48 96v118q0 32 87 71t193 39t193 -39t87 -71v-118zM78 734l-18 -14q-4 -8 4 -14q92 -52 216 -52q132 0 220 50
q14 10 -16 30q-96 54 -202 54q-120 0 -204 -54zM306 350q0 18 4 33t18 33t20 25t31 31l29 28q92 92 92 122l2 50q-100 -54 -222 -54t-222 54l4 -50q0 -32 90 -122l45 -43l19 -19l17 -21q17 -21 11 -20t9 -23t3 -24q0 -10 -1 -19t-6 -18t-8 -16t-11 -17l-12 -15l-15 -16
q-15 -16 -16 -15t-18 -16t-17 -16q-90 -90 -90 -122v-66q8 4 66 23t92 43t34 58q0 30 26 30t26 -30q0 -34 33 -58t94 -43t67 -23v66q0 30 -92 122l-43 41l-18 19q-13 14 -18 22l-12 20q-7 12 -9 23t-2 23z" />
    <glyph glyph-name="login" unicode="&#xe82c;" horiz-adv-x="900" 
d="M800 800q42 0 71 -29t29 -71v-700q0 -40 -29 -70t-71 -30h-450q-40 0 -69 30t-29 70v100h98v-100h450v700h-450v-150h-98v150q0 42 29 71t69 29h450zM450 130v120h-450v150h450v120l200 -194z" />
    <glyph glyph-name="logout" unicode="&#xe82d;" horiz-adv-x="900" 
d="M502 0v100h98v-100q0 -40 -29 -70t-71 -30h-400q-40 0 -70 30t-30 70v700q0 42 30 71t70 29h400q42 0 71 -29t29 -71v-150h-98v150h-402v-700h402zM900 326l-198 -196v120h-450v150h450v120z" />
    <glyph glyph-name="cup" unicode="&#xe82e;" horiz-adv-x="681" 
d="M340 760q152 0 249 -41t91 -87l-72 -594q-2 -14 -34 -36t-97 -42t-137 -20t-136 20t-97 42t-35 36l-72 594q-4 28 36 57t121 50t183 21zM340 544q72 0 137 15t98 33t33 30t-33 29t-98 32t-137 15t-137 -15t-98 -32t-33 -29t33 -30t98 -33t137 -15z" />
    <glyph glyph-name="stop" unicode="&#xe82f;" horiz-adv-x="625" 
d="M521 663q44 0 74 -30t30 -74v-418q0 -43 -30 -73t-74 -30h-417q-44 0 -74 30t-30 73v418q0 44 30 74t74 30h417z" />
    <glyph glyph-name="play" unicode="&#xe830;" horiz-adv-x="521" 
d="M178 15q-30 -30 -73.5 -30t-73.5 31t-31 74v520q0 44 31 74t73 31q44 0 74 -30l343 -335z" />
    <glyph glyph-name="pause" unicode="&#xe831;" horiz-adv-x="573" 
d="M104 663q44 0 74 -31t31 -73v-418q0 -42 -31 -73t-74 -31t-74 30t-30 74v418q0 44 30 74t74 30zM469 663q44 0 74 -30t30 -74v-418q0 -43 -30 -73t-74 -30t-74 30t-30 73v418q0 44 30 74t74 30z" />
    <glyph glyph-name="restaurant" unicode="&#xe832;" horiz-adv-x="550" 
d="M50 800q-20 -1 -34.5 -15.5t-15.5 -34.5v-250q3 -34 25 -50t25 -50v-450q1 -20 15.5 -34.5t34.5 -15.5h50q20 1 34.5 15.5t15.5 34.5v450q3 34 25 50t25 50v250q-1 20 -15.5 34.5t-34.5 15.5q-9 -1 -10.5 -9t-1.5 -16v-200q0 -8 -2 -16t-11 -8t-10.5 8t-1.5 16v200
q0 8 -2 16t-11 9h-50q-9 -1 -10.5 -9t-1.5 -16v-200q0 -8 -2 -16t-11 -8t-10.5 8t-1.5 16v200q0 8 -2 16t-11 9zM550 800q-41 1 -94.5 -14t-80.5 -61q-18 -42 -22 -112.5t-3 -112.5v-200q1 -20 15.5 -34.5t34.5 -15.5v-300q1 -20 15.5 -34.5t34.5 -15.5h50q20 1 34.5 15.5
t15.5 34.5v850z" />
    <glyph glyph-name="pause-outline" unicode="&#xe833;" horiz-adv-x="678" 
d="M156 -41q-65 0 -110 46t-46 111v468q0 65 46 111t110 46t111 -46t46 -111v-468q0 -65 -46 -111t-111 -46zM156 636q-21 0 -37 -15t-15 -37v-468q0 -22 15 -37t37 -16t37 16t16 37v468q0 22 -16 37t-37 15zM521 -41q-65 0 -110 46t-46 111v468q0 65 46 111t110 46t111 -46
t46 -111v-468q0 -65 -46 -111t-111 -46zM521 636q-21 0 -37 -15t-15 -37v-468q0 -22 15 -37t37 -16t37 16t15 37v468q0 22 -15 37t-37 15z" />
    <glyph glyph-name="rain" unicode="&#xe834;" horiz-adv-x="1041" 
d="M678 -67q-22 0 -37 16t-16 36v313q0 21 16 37t37 16t36 -16t15 -37v-313q0 -21 -15 -36t-36 -16zM365 -67q-21 0 -37 16t-15 36v313q0 21 15 37t37 16t36 -16t15 -37v-313q0 -21 -15 -36t-36 -16zM521 -171q-21 0 -37 16t-15 37v312q0 22 15 37t37 15t37 -15t15 -37v-312
q0 -22 -15 -37t-37 -16zM209 142q-86 0 -148 61t-61 148q0 72 44 128t112 73v6q0 129 92 221t221 92q101 0 181 -58t113 -151q113 9 196 -69t82 -191q0 -88 -53 -157t-137 -93q-21 -6 -40 5t-25 31.5t5 39.5t32 24q51 14 83 55t32 95q0 65 -46 110t-111 46q-22 0 -42 -6
l-56 -16l-9 57q-14 75 -71 124t-134 50q-86 0 -148 -62t-61 -147q0 -14 5 -41l13 -63h-74q-40 0 -70 -30t-30 -73.5t30 -74.5t75 -31q21 0 36 -15t15 -36t-15 -37t-36 -15z" />
    <glyph glyph-name="cloud-sun" unicode="&#xe835;" horiz-adv-x="1141" 
d="M703 808l-52 -156l-52 156q-8 22 3 42t32 28q29 10 54 -12t15 -58zM983 650l-148 -74l74 147q10 20 32 27t42 -3q31 -16 30 -49t-30 -48zM1068 340l-157 52l157 51q21 8 41 -2t29 -31q10 -29 -13 -55t-57 -15zM394 723l74 -147l-148 74q-21 10 -28 31t3 42q16 32 50 30
t49 -30zM874 322q75 -29 121 -94t46 -148q0 -108 -76 -185t-184 -77h-572q-86 0 -148 62t-61 147q0 73 44 128t112 73v8q0 62 23 117q-30 28 -9 67t66 23q95 105 233 105h4q3 0 3 -1q69 79 175 79q97 0 165 -69t69 -165q0 -36 -11 -70zM651 522q-55 0 -95 -42
q110 -39 154 -152q26 8 59 10q12 28 12 54q0 54 -38 92t-92 38zM781 236q-7 0 -27 -5t-30 -4q-39 0 -49 38q-1 1 -2 5t0 5q-14 72 -70 120t-130 50h-2q-1 -2 -2 -2q-86 0 -148 -60t-61 -147q0 -15 5 -43l13 -62l-74 1q-40 0 -70 -31t-30 -74t30 -73t75 -31h572q65 0 111 46
t46 111t-46 110t-111 46z" />
    <glyph glyph-name="drizzle" unicode="&#xe836;" horiz-adv-x="1041" 
d="M781 74q-21 0 -37 16t-15 37t15 36t37 15q65 0 111 46t46 110t-46 111t-111 46q-22 0 -42 -7l-56 -16l-9 58q-14 75 -71 124t-134 49q-86 0 -148 -61t-61 -147q0 -14 5 -42l13 -62h-74q-40 0 -70 -31t-30 -74t30 -73t75 -31q21 0 36 -15t15 -36t-15 -37t-36 -16
q-86 0 -148 62t-61 147q0 73 44 128t112 73v7q0 128 92 220t221 92q101 0 181 -57t113 -152q113 9 196 -68t82 -192q0 -107 -76 -183t-184 -77zM443 74l52 157l53 -157q7 -21 -4 -42t-31 -28q-29 -10 -55 13t-15 57zM599 -30l52 157l52 -157q7 -21 -3 -41t-31 -29
q-29 -10 -55 13t-15 57zM286 -30l53 157l51 -157q8 -21 -2 -41t-32 -29q-28 -10 -55 13t-15 57z" />
    <glyph glyph-name="cloud-flash" unicode="&#xe837;" horiz-adv-x="1041" 
d="M781 116q-21 0 -37 15t-15 37t15 37t37 15q65 0 111 45t46 111t-46 110t-111 46q-22 0 -42 -6l-56 -16l-9 57q-14 75 -71 124t-134 50q-86 0 -148 -62t-61 -147q0 -14 5 -41l14 -65l-75 2q-40 0 -70 -30t-30 -73.5t30 -74.5t75 -31q21 0 36 -15t15 -36t-15 -37t-36 -15
q-86 0 -148 61t-61 147q0 73 44 129t112 73v6q0 129 92 221t221 91q101 0 181 -57t113 -151q113 8 196 -69t82 -191q0 -108 -76 -184t-184 -76zM554 325l-78 -183l157 -76l-235 -210l78 182l-156 75z" />
    <glyph glyph-name="cloud-wind" unicode="&#xe838;" horiz-adv-x="1041" 
d="M146 129q-11 0 -21 4q-57 25 -91 76t-34 115q0 72 44 128t112 73v8q0 128 92 220t221 92q115 0 202 -74t105 -187q4 -21 -8 -39t-33.5 -21t-39.5 9t-21 33q-14 75 -71 125t-134 49q-86 0 -148 -61t-61 -146q0 -15 5 -43l13 -66l-74 5q-40 0 -70 -31t-30 -74q0 -31 17 -57
t45 -38q25 -11 30 -36t-9 -44t-41 -20zM885 584q65 0 111 -46t45 -110t-45 -111t-111 -46h-114q10 -26 10 -51q0 -65 -45 -111t-111 -45h-260q-21 0 -37 -16t-15 -37t15 -37t37 -15t36 -15t15 -36t-15 -37t-36 -16q-65 0 -111 46t-45 110t45 111t111 46h260q21 0 37 15
t16 37t-16 36t-37 15h-240q-21 0 -36 16t-15 37t15 37t36 15h500q21 0 37 15t16 37t-16 36t-37 16t-36 16t-15 37t15 36t36 15z" />
    <glyph glyph-name="wind" unicode="&#xe839;" horiz-adv-x="906" 
d="M750 715q65 0 111 -46t45 -110t-45 -111t-111 -46h-114q10 -26 10 -52q0 -65 -45 -111t-111 -45h-334q-21 0 -37 -16t-15 -37t15 -36t37 -15t37 -16t16 -37t-16 -36t-37 -16q-65 0 -110 46t-46 110t46 111t110 45h334q21 0 36 16t15 37t-15 37t-36 15h-312q-22 0 -37 15
t-16 37t16 37t37 15h572q21 0 37 16t16 37t-16 36t-37 15t-37 16t-15 36t15 37t37 16z" />
    <glyph glyph-name="plane-outline" unicode="&#xe83a;" horiz-adv-x="1043" 
d="M963 363q51 -29 71 -86t-3.5 -111t-76.5 -80t-111 -9l-140 40v-44l46 -36q47 -38 57 -97t-22.5 -110t-90.5 -67t-111 11q-26 10 -60 10q-15 0 -31 -2t-23 -5l-7 -3q-54 -27 -112 -11t-90 66.5t-22 110.5t56 97l46 36v44l-140 -40q-57 -16 -110 9t-76 80t-4 111t70 86
l260 148v250q0 75 54 128t129 54t128 -54t53 -128v-250zM934 207q8 17 2 36t-24 29l-313 179v310q0 32 -23 55t-54 23t-55 -23t-24 -55v-310l-312 -179q-17 -9 -23 -28t1 -37t25 -26t37 -4l272 77v-231l-85 -68q-16 -12 -19 -33t8 -37t30 -21t37 4q44 20 108 20q29 0 55 -5
t39 -10l12 -5q18 -10 38 -4t30 21t7 37t-19 33l-85 68v231l273 -77q19 -5 37 4t25 26zM496 773q0 26 25.5 26t25.5 -25.5t-25.5 -25.5t-25.5 25z" />
    <glyph glyph-name="leaf" unicode="&#xe83b;" horiz-adv-x="885" 
d="M885 402q0 -180 -109 -322t-281 -188v-64q0 -21 -16 -36t-36 -15t-37 15t-16 36v64q-172 46 -281 188t-109 322q0 191 123 338t311 182l9 1l10 -1q188 -35 310 -182t122 -338zM495 1q128 43 207 153t79 248q0 151 -95 268t-243 147q-148 -30 -244 -147t-95 -268
q0 -136 80 -247t207 -154v156l-227 226q-11 11 -6 25t18 18t25 -7l190 -190v188l-123 122q-12 12 -7 25t18 18t26 -6l85 -85v171q0 21 16 37t37 15t36 -15t16 -37v-171l85 85q11 11 26 6t18 -18t-6 -25l-123 -122v-188l190 190q18 18 36 0t0 -36l-226 -226v-156z" />
    <glyph glyph-name="cloud-1" unicode="&#xe83c;" horiz-adv-x="1041" 
d="M781 -15h-572q-86 0 -148 61t-61 148q0 72 44 128t112 73v8q0 130 92 221t221 91q100 0 180 -58t114 -152q115 9 196 -68t82 -191q0 -107 -76 -184t-184 -77zM204 299q-40 0 -70 -31t-30 -74t30 -73t75 -31h572q65 0 111 46t46 110t-46 111t-111 46q-18 0 -42 -8l-56 -16
l-9 57q-14 75 -71 125t-134 49q-86 0 -148 -61t-61 -146q0 -15 5 -43l13 -62z" />
    <glyph glyph-name="flash-outline" unicode="&#xe83d;" horiz-adv-x="729" 
d="M495 767zM495 767l-391 -369l261 -151l-130 -313l390 370l-260 150zM495 872q43 0 73 -31t31 -74q0 -22 -10 -44l-93 -224l182 -105q43 -25 50 -77t-32 -89l-390 -370q-31 -29 -72 -29q-56 0 -86 48t-9 97l95 228l-181 105q-44 25 -52 76t32 90l390 370q31 29 72 29z" />
    <glyph glyph-name="tree-1" unicode="&#xe83e;" horiz-adv-x="650" 
d="M325 800l-275 -250h150l-200 -200h150l-150 -200h250v-200q1 -21 15 -35t35 -15h50q22 1 36 15t14 35v200h250l-150 200h150l-200 200h150z" />
    <glyph glyph-name="flash-1" unicode="&#xe83f;" horiz-adv-x="624" 
d="M598 349q23 -12 26 -39t-16 -45l-391 -370q-14 -14 -35 -14q-28 0 -43 24t-6 49l113 270l-220 128q-22 12 -25 38t15 45l391 370q11 14 35 14q21 0 37 -16t15 -36q0 -13 -5 -23l-111 -267z" />
    <glyph glyph-name="moon-1" unicode="&#xe840;" horiz-adv-x="591" 
d="M200 -41q-67 0 -131 23l-69 26l46 56q102 124 102 285t-102 285l-46 58l69 25q67 24 131 24q161 0 276 -115t115 -277t-115 -275t-276 -115zM174 64q9 -1 26 -1q118 0 202 84t84 202t-84 203t-202 84q-17 0 -26 -2q79 -132 79 -285t-79 -285z" />
    <glyph glyph-name="waves-outline" unicode="&#xe841;" horiz-adv-x="938" 
d="M781 715q64 0 110 -47t47 -110q0 -60 -40 -103q40 -44 40 -104.5t-40 -104.5q40 -44 40 -104q0 -65 -47 -111q-110 -110 -266 -110t-266 110q-19 19 -46 19t-47 -19q-45 -45 -109 -45t-111 46t-46 110q0 60 40 104q-40 44 -40 104.5t40 104.5q-40 43 -40 103q0 64 46 110
q112 112 267 112t266 -112q19 -18 46 -18t46 18q47 47 110 47zM818 105q15 15 15 36t-15 37t-37 15t-36 -15q-49 -48 -120 -48t-120 48q-80 80 -192 80t-193 -80q-15 -15 -15 -37t15 -36t36 -15t37 15q50 50 120 50t120 -50q80 -80 192 -80t193 80zM120 595q-15 -15 -15 -37
t15 -36q16 -16 36 -16t37 16q48 49 120 49t120 -49q80 -80 192 -80t193 80q15 15 15 36t-16 37t-36 16t-36 -16q-49 -49 -120 -49t-120 49q-80 80 -192 80t-193 -80zM818 313q15 15 15 37t-15 37t-37 15t-36 -15q-50 -50 -120 -50t-120 50q-80 80 -192 80t-193 -80
q-15 -15 -15 -37t15 -37t36 -15t37 15q48 49 120 49t120 -49q80 -80 192 -80t193 80z" />
    <glyph glyph-name="waves" unicode="&#xe842;" horiz-adv-x="729" 
d="M521 25q-113 0 -193 80q-50 50 -120 50t-119 -50q-15 -15 -37 -15t-37 15t-15 37t15 37q80 80 193 80t193 -80q50 -50 120 -50t119 50q15 15 37 15t37 -15t15 -37t-15 -37q-80 -80 -193 -80zM521 234q-113 0 -193 80q-50 50 -120 50t-119 -50q-15 -15 -37 -15t-37 15
t-15 37t15 37q80 80 193 80t193 -80q50 -50 120 -50t119 50q15 15 37 15t37 -15t15 -37t-15 -37q-80 -80 -193 -80zM521 443q-113 0 -193 80q-50 50 -120 50t-119 -50q-15 -15 -37 -15t-37 15t-15 36t15 36q80 80 193 80t193 -80q50 -50 120 -50t119 50q15 15 37 15t37 -15
t15 -36t-15 -36q-80 -80 -193 -80z" />
    <glyph glyph-name="gift-1" unicode="&#xe843;" horiz-adv-x="938" 
d="M885 585q21 0 37 -16t16 -36v-209q0 -21 -16 -36t-37 -15v-262q0 -65 -46 -110t-110 -46h-520q-65 0 -111 46t-45 110v262q-22 0 -37 15t-16 36v209q0 21 16 36t37 16h122q-19 40 -19 78q0 75 54 128t129 54q77 0 130 -55q52 55 130 55q75 0 129 -54t53 -128
q0 -38 -18 -78h122zM834 376v104h-261v-104h261zM416 636v-51h105v51h-105zM521 480h-105v-104h105v104zM599 741q-25 0 -46 -15t-28 -38q20 -3 34 -17t14 -35v-46q15 -5 26 -5q32 0 55 23t24 55t-24 55t-55 23zM260 663q0 -32 23 -55t56 -23q11 0 26 5v46q0 20 14 35t34 17
q-8 23 -29 38t-45 15q-31 0 -55 -23t-24 -55zM365 480h-261v-104h261v104zM209 -40h156v364h-209v-313q0 -21 16 -36t37 -15zM416 -40h105v364h-105v-364zM729 -40q21 0 37 15t15 36v313h-208v-364h156z" />
    <glyph glyph-name="temperatire" unicode="&#xe844;" horiz-adv-x="521" 
d="M286 190q34 -8 57 -36t22 -64q0 -42 -31 -73t-74 -32t-73 31t-31 74q0 37 23 64t56 36v290q0 10 8 18t17 9t18 -9t8 -18v-290zM443 274q78 -79 78 -185t-77 -183t-184 -77t-184 77t-76.5 184t78.5 184v415q0 75 53 129t129 54t129 -54t54 -129v-415zM260 -66q65 0 111 46
t45 110q0 88 -77 134v465q0 31 -23 54t-56 24t-55 -24t-22 -54v-465q-79 -46 -79 -134q0 -65 45 -110t111 -46z" />
    <glyph glyph-name="lightbulb" unicode="&#xe845;" horiz-adv-x="781" 
d="M390 663q64 0 109 -45t46 -110q0 -11 -7 -18t-19 -8t-19 8t-7 18q0 43 -30 73t-73 30q-25 0 -25 26t25 26zM390 -197q-21 0 -36 16t-15 37h-104q-21 0 -37 15t-15 37v157q0 31 -23 76t-90 142q-70 97 -70 224q0 161 114 276t276 114t276 -114t115 -276q0 -121 -71 -224
q-67 -96 -89 -140t-22 -78v-157q0 -21 -15 -37t-36 -15h-105q0 -22 -16 -37t-37 -16zM495 -41v53h-209v-53h209zM625 342q53 76 53 165q0 118 -85 202t-202.5 84t-202.5 -84t-84 -202q0 -87 52 -164q107 -155 124 -227h59v105q0 21 15 36t36 15t37 -15t16 -36v-105h57
q16 71 125 226z" />
    <glyph glyph-name="tag-2" unicode="&#xe846;" horiz-adv-x="928" 
d="M389 797l522 -522h-371v-372l-522 523v371h371zM222 487q44 0 76 31t31 75t-31 75t-76 32t-75 -32t-31 -75t31 -75t75 -31z" />
    <glyph glyph-name="tag-empty" unicode="&#xe847;" horiz-adv-x="928" 
d="M344 557q0 -36 -25 -61t-61 -25t-60 25t-25 61t25 61t60 25t61 -25t25 -61zM18 797h371l522 -522h-370v-372l-523 524v370zM347 697h-229v-229l324 -324v231h229q-63 62 -193 192z" />
    <glyph glyph-name="ie" unicode="&#xe848;" horiz-adv-x="944" 
d="M844 850q-61 -2 -133 -31t-148 -75q-188 25 -340 -74t-169 -312q49 76 152.5 169t214.5 132v-13q-160 -92 -326.5 -359.5t-33.5 -413.5q77 -44 193 -2.5t151 78.5q44 -8 89 -8q153 2 267.5 82.5t156.5 209.5h-301q-10 -42 -41 -66.5t-80 -25.5q-75 2 -101.5 44.5
t-24.5 106.5h561q18 156 -70 275.5t-236 163.5q139 94 239 90.5t60 -194.5h20q26 83 16 139t-54 74q-27 10 -58 10h-4zM492 547q60 0 93.5 -34t34.5 -95h-252q0 59 32.5 93.5t91.5 35.5zM125 125q44 -63 109.5 -107t146.5 -64q-63 -44 -146.5 -59.5t-119.5 7.5
q-35 31 -30 89.5t40 133.5z" />
    <glyph glyph-name="opera" unicode="&#xe849;" horiz-adv-x="851" 
d="M426 -150q-426 63 -426 500.5t426 499.5q426 -62 425.5 -499.5t-425.5 -500.5zM426 -58q178 51 178 408t-178 408q-178 -51 -178 -408t178 -408z" />
    <glyph glyph-name="chrome" unicode="&#xe84a;" 
d="M498 850q-112 -1 -213 -48.5t-174 -137.5l154 -237q31 85 104 131.5t163 38.5l414 -22q-32 63 -81 116t-115 92q-60 34 -123.5 50.5t-128.5 16.5zM82 624q-39 -59 -60.5 -128.5t-21.5 -145.5q4 -191 121.5 -326.5t301.5 -167.5l128 252q-89 -15 -166 25t-115 121z
M967 530l-282 -15q57 -69 61 -156t-48 -161l-226 -347q71 -5 141.5 11.5t136.5 54.5q163 99 222 268.5t-5 344.5zM500 519q-72 -2 -119.5 -49.5t-49.5 -119.5q2 -72 49.5 -119.5t119.5 -49.5q72 2 119.5 49.5t49.5 119.5q-2 72 -49.5 119.5t-119.5 49.5z" />
    <glyph glyph-name="firefox" unicode="&#xe84b;" 
d="M504 -137q-163 2 -284 85.5t-182 220.5q-63 159 -21.5 353t160.5 310l-6 -156q9 7 38 7.5t40 -8.5q27 47 90.5 77.5t129.5 32.5q-28 -23 -64 -78t-35 -96q32 -9 71 -11.5t65 -3.5q8 -6 5.5 -26t-17.5 -42q-24 -27 -58.5 -38t-38.5 -11l8 -106l-77 38q-17 -50 15.5 -83
t81.5 -27q50 12 79 33t63 21q37 -2 51.5 -18t9.5 -36q-8 -21 -32 -23.5t-27 -1.5q-32 -52 -79.5 -75.5t-118.5 -17.5q114 -82 229 -37.5t158 124.5q35 77 16 162t-59 121q44 -18 74 -42t46 -66q8 96 -31.5 190.5t-117.5 159.5q146 -42 228.5 -154t85.5 -291
q-2 -187 -140 -333t-356 -154z" />
    <glyph glyph-name="target-outline" unicode="&#xe84c;" horiz-adv-x="885" 
d="M443 793q182 0 312 -130t130 -313t-130 -312t-312 -131t-313 131t-130 312t130 313t313 130zM443 13q140 0 239 98t99 239t-99 239t-239 100t-240 -100t-99 -239t99 -239t240 -98zM625 403q-21 0 -37 -16t-15 -37t15 -36t37 -15h46q-15 -66 -63 -114t-113 -62v45
q0 21 -16 36t-36 16t-37 -16t-16 -36v-45q-65 15 -112 62t-63 114h45q21 0 37 15t16 36t-16 37t-37 16h-45q15 66 63 113t112 63v-46q0 -22 16 -37t37 -16t36 16t16 37v46q65 -15 113 -63t63 -113h-46zM594 251q-33 10 -53 38t-20 61t20 61t53 38q-21 31 -53 52
q-10 -32 -37 -52t-61 -20t-62 20t-37 52q-31 -21 -53 -52q33 -10 53 -38t21 -61t-21 -61t-53 -38q19 -30 53 -51q10 33 37 53t62 20t61 -20t37 -53q34 21 53 51z" />
    <glyph glyph-name="stop-1" unicode="&#xe84d;" horiz-adv-x="857" 
d="M857 743v-786q0 -14 -10 -25t-26 -11h-785q-15 0 -25 11t-11 25v786q0 14 11 25t25 11h785q15 0 26 -11t10 -25z" />
    <glyph glyph-name="play-1" unicode="&#xe84e;" horiz-adv-x="785" 
d="M772 333l-741 -412q-13 -7 -22 -2t-9 20v822q0 14 9 20t22 -2l741 -412q13 -7 13 -17t-13 -17z" />
    <glyph glyph-name="pause-1" unicode="&#xe84f;" horiz-adv-x="857" 
d="M857 743v-786q0 -14 -10 -25t-26 -11h-285q-15 0 -25 11t-11 25v786q0 14 11 25t25 11h285q15 0 26 -11t10 -25zM357 743v-786q0 -14 -10 -25t-26 -11h-285q-15 0 -25 11t-11 25v786q0 14 11 25t25 11h285q15 0 26 -11t10 -25z" />
    <glyph glyph-name="blank" unicode="&#xe850;" horiz-adv-x="857" 
d="M857 618v-536q0 -66 -47 -113t-114 -48h-535q-67 0 -114 48t-47 113v536q0 66 47 113t114 48h535q67 0 114 -48t47 -113z" />
    <glyph glyph-name="rocket-1" unicode="&#xe851;" horiz-adv-x="928" 
d="M804 600q0 22 -16 38t-38 16t-38 -16t-16 -38t16 -38t38 -16t38 16t16 38zM929 761q0 -139 -43 -241t-141 -201q-45 -44 -109 -98l-11 -211q-1 -9 -9 -15l-214 -125q-4 -2 -10 -2t-12 5l-36 36q-7 7 -4 17l47 155l-156 156l-155 -47q-1 -1 -5 -1q-7 0 -12 5l-36 36
q-10 11 -3 22l125 214q6 8 15 9l211 11q54 64 98 109q105 104 200 144t241 40q7 0 13 -6t6 -12z" />
    <glyph glyph-name="check-empty" unicode="&#xe852;" horiz-adv-x="785" 
d="M625 707h-464q-37 0 -63 -26t-27 -63v-464q0 -37 27 -63t63 -27h464q37 0 63 27t26 63v464q0 37 -26 63t-63 26zM786 618v-464q0 -67 -47 -114t-114 -47h-464q-67 0 -114 47t-47 114v464q0 66 47 113t114 48h464q66 0 114 -48t47 -113z" />
    <glyph glyph-name="check" unicode="&#xe853;" horiz-adv-x="928" 
d="M786 331v-177q0 -67 -47 -114t-114 -47h-464q-67 0 -114 47t-47 114v464q0 66 47 113t114 48h464q35 0 65 -14q9 -4 10.5 -13.5t-5.5 -15.5l-27 -28q-6 -5 -13 -5q-2 0 -5 1q-13 3 -25 3h-464q-37 0 -63 -26t-27 -63v-464q0 -37 27 -63t63 -27h464q37 0 63 27t26 63v141
q0 8 5 13l36 35q6 6 13 6q3 0 7 -2q11 -4 11 -16zM915 604l-455 -454q-13 -14 -31 -14t-32 14l-240 240q-14 13 -14 31t14 32l61 62q14 13 32 13t32 -13l147 -147l361 361q13 13 31 13t32 -13l62 -61q13 -14 13 -32t-13 -32z" />
    <glyph glyph-name="resize-full" unicode="&#xe854;" horiz-adv-x="792" 
d="M476 746h316v-316l-100 124l-146 -152l-100 100l152 146zM246 302l100 -100l-152 -146l122 -100h-316v316l100 -122z" />
    <glyph glyph-name="resize-small" unicode="&#xe855;" horiz-adv-x="900" 
d="M156 146l-106 100h296v-296l-100 106l-146 -156l-100 100zM900 700l-154 -144l104 -100h-294v294l100 -104l144 154z" />
    <glyph glyph-name="popup" unicode="&#xe856;" horiz-adv-x="800" 
d="M700 750q42 0 71 -29t29 -71v-400q0 -40 -29 -70t-71 -30h-400q-40 0 -70 30t-30 70v402q0 40 29 69t71 29h400zM700 250v400h-400v-400h400zM100 350v-300h300v-100h-300q-40 0 -70 30t-30 70v300h100z" />
    <glyph glyph-name="volume-down" unicode="&#xe857;" horiz-adv-x="642" 
d="M429 654v-608q0 -14 -11 -25t-25 -10t-25 10l-186 186h-146q-15 0 -25 11t-11 25v214q0 15 11 25t25 11h146l186 186q10 10 25 10t25 -10t11 -25zM643 350q0 -42 -24 -79t-63 -52q-5 -3 -14 -3q-14 0 -25 10t-10 26q0 12 6 20t17 14t19 12t16 20t6 32t-6 32t-16 20
t-19 12l-17 14q-10 8 -6 20q0 15 10 26t25 10q9 0 14 -3q39 -15 63 -52t24 -79z" />
    <glyph glyph-name="volume-up" unicode="&#xe858;" horiz-adv-x="928" 
d="M429 654v-608q0 -14 -11 -25t-25 -10t-25 10l-186 186h-146q-15 0 -25 11t-11 25v214q0 15 11 25t25 11h146l186 186q10 10 25 10t25 -10t11 -25zM643 350q0 -42 -24 -79t-63 -52q-5 -3 -14 -3q-14 0 -25 10t-10 26q0 12 6 20t17 14t19 12t16 20t6 32t-6 32t-16 20
t-19 12l-17 14q-10 8 -6 20q0 15 10 26t25 10q9 0 14 -3q39 -15 63 -52t24 -79zM786 350q0 -85 -48 -158t-125 -105q-8 -3 -14 -3q-15 0 -26 11t-10 25q0 22 21 33q32 16 43 25q41 30 64 75t23 97t-23 97t-64 75q-11 9 -43 25q-21 11 -21 33q0 14 10 25t25 11q7 0 15 -3
q78 -33 125 -105t48 -158zM929 350q0 -128 -71 -236t-189 -158q-7 -3 -14 -3q-15 0 -26 11t-10 25q0 20 22 33l25 12q25 14 45 28q69 51 108 127t38 161t-38 161t-108 127q-20 14 -45 28q-4 3 -13 6t-12 6q-22 13 -22 33q0 14 10 25t26 11q7 0 14 -3q118 -51 189 -158
t71 -236z" />
    <glyph glyph-name="volume-off" unicode="&#xe859;" horiz-adv-x="428" 
d="M429 654v-608q0 -14 -11 -25t-25 -10t-25 10l-186 186h-146q-15 0 -25 11t-11 25v214q0 15 11 25t25 11h146l186 186q10 10 25 10t25 -10t11 -25z" />
    <glyph glyph-name="mute-1" unicode="&#xe85a;" horiz-adv-x="785" 
d="M151 323l-56 -57q-24 58 -24 120v71q0 15 11 25t25 11t25 -11t11 -25v-71q0 -30 8 -63zM773 659l-202 -202v-71q0 -74 -52 -126t-126 -53q-31 0 -61 11l-54 -54q55 -28 115 -28q103 0 176 73t74 177v71q0 15 10 25t26 11t25 -11t10 -25v-71q0 -124 -82 -215t-203 -104
v-74h142q15 0 26 -11t10 -25t-10 -25t-26 -11h-357q-14 0 -25 11t-10 25t10 25t25 11h143v74q-70 7 -131 45l-142 -142q-5 -6 -13 -6t-12 6l-46 46q-6 5 -6 13t6 12l688 689q6 6 13 6t13 -6l46 -46q5 -5 5 -13t-5 -12zM561 732l-347 -346v285q0 74 53 127t126 52
q57 0 103 -33t65 -85z" />
    <glyph glyph-name="mic" unicode="&#xe85b;" horiz-adv-x="642" 
d="M643 457v-71q0 -124 -82 -215t-204 -104v-74h143q15 0 25 -11t11 -25t-11 -25t-25 -11h-357q-15 0 -25 11t-11 25t11 25t25 11h143v74q-121 13 -204 104t-82 215v71q0 15 11 25t25 11t25 -11t10 -25v-71q0 -104 74 -177t176 -73t177 73t73 177v71q0 15 11 25t25 11
t25 -11t11 -25zM500 671v-285q0 -74 -52 -126t-127 -53t-126 53t-52 126v285q0 74 52 127t126 52t127 -52t52 -127z" />
    <glyph glyph-name="award" unicode="&#xe85c;" horiz-adv-x="928" 
d="M256 357q-42 91 -42 207h-143v-53q0 -44 53 -91t132 -63zM857 511v53h-143q0 -116 -41 -207q79 16 131 63t53 91zM929 582v-71q0 -40 -24 -80t-62 -73t-97 -54t-120 -25q-23 -30 -53 -53q-21 -19 -29 -40t-8 -50.5t17 -50.5t54 -21q42 0 75 -25t32 -64v-36q0 -8 -5 -13
t-13 -5h-464q-8 0 -13 5t-5 13v36q0 39 33 64t74 25q38 0 55 21t17 50t-8 51t-30 40q-29 23 -53 53q-63 3 -120 25t-96 54t-63 73t-23 80v71q0 22 16 38t38 16h160v53q0 37 27 63t63 27h321q37 0 63 -27t26 -63v-53h161q22 0 38 -16t16 -38z" />
    <glyph glyph-name="dot-circled" unicode="&#xe85d;" horiz-adv-x="857" 
d="M571 350q0 -59 -41 -101t-101 -42t-101 42t-42 101t42 101t101 42t101 -42t41 -101zM429 654q-83 0 -153 -41t-110 -111t-41 -152t41 -152t110 -111t153 -41t152 41t110 111t41 152t-41 152t-110 111t-152 41zM857 350q0 -117 -57 -215t-156 -156t-215 -58t-216 58
t-155 156t-58 215t58 215t155 156t216 58t215 -58t156 -156t57 -215z" />
    <glyph glyph-name="circle-empty" unicode="&#xe85e;" horiz-adv-x="857" 
d="M429 654q-83 0 -153 -41t-110 -111t-41 -152t41 -152t110 -111t153 -41t152 41t110 111t41 152t-41 152t-110 111t-152 41zM857 350q0 -117 -57 -215t-156 -156t-215 -58t-216 58t-155 156t-58 215t58 215t155 156t216 58t215 -58t156 -156t57 -215z" />
    <glyph glyph-name="circle" unicode="&#xe85f;" horiz-adv-x="857" 
d="M857 350q0 -117 -57 -215t-156 -156t-215 -58t-216 58t-155 156t-58 215t58 215t155 156t216 58t215 -58t156 -156t57 -215z" />
    <glyph glyph-name="code" unicode="&#xe860;" horiz-adv-x="1071" 
d="M344 69l-28 -28q-5 -5 -12 -5t-13 5l-260 260q-6 6 -6 13t6 13l260 260q5 6 13 6t12 -6l28 -28q6 -5 6 -13t-6 -12l-219 -220l219 -219q6 -6 6 -13t-6 -13zM674 665l-208 -721q-2 -7 -9 -11t-13 -1l-34 9q-8 3 -11 9t-2 14l208 720q3 8 9 11t13 2l35 -10q7 -2 11 -9
t1 -13zM1041 301l-260 -260q-6 -5 -13 -5t-13 5l-28 28q-5 6 -5 13t5 13l219 219l-219 220q-5 5 -5 12t5 13l28 28q6 6 13 6t13 -6l260 -260q5 -5 5 -13t-5 -13z" />
    <glyph glyph-name="table" unicode="&#xe861;" horiz-adv-x="928" 
d="M286 82v107q0 8 -5 13t-13 5h-179q-7 0 -13 -5t-5 -13v-107q0 -8 5 -13t13 -5h179q8 0 13 5t5 13zM286 296v108q0 7 -5 12t-13 5h-179q-7 0 -13 -5t-5 -12v-108q0 -7 5 -12t13 -5h179q8 0 13 5t5 12zM571 82v107q0 8 -5 13t-12 5h-179q-8 0 -13 -5t-5 -13v-107
q0 -8 5 -13t13 -5h179q7 0 12 5t5 13zM286 511v107q0 8 -5 13t-13 5h-179q-7 0 -13 -5t-5 -13v-107q0 -8 5 -13t13 -5h179q8 0 13 5t5 13zM571 296v108q0 7 -5 12t-12 5h-179q-8 0 -13 -5t-5 -12v-108q0 -7 5 -12t13 -5h179q7 0 12 5t5 12zM857 82v107q0 8 -5 13t-13 5h-178
q-8 0 -13 -5t-5 -13v-107q0 -8 5 -13t13 -5h178q8 0 13 5t5 13zM571 511v107q0 8 -5 13t-12 5h-179q-8 0 -13 -5t-5 -13v-107q0 -8 5 -13t13 -5h179q7 0 12 5t5 13zM857 296v108q0 7 -5 12t-13 5h-178q-8 0 -13 -5t-5 -12v-108q0 -7 5 -12t13 -5h178q8 0 13 5t5 12zM857 511
v107q0 8 -5 13t-13 5h-178q-8 0 -13 -5t-5 -13v-107q0 -8 5 -13t13 -5h178q8 0 13 5t5 13zM929 689v-607q0 -37 -27 -63t-63 -26h-750q-36 0 -63 26t-26 63v607q0 37 26 63t63 27h750q37 0 63 -27t27 -63z" />
    <glyph glyph-name="code-1" unicode="&#xe862;" 
d="M380 636q16 -14 16 -32t-16 -30l-246 -224l246 -226q16 -12 16 -30t-16 -32q-30 -30 -60 0l-320 288l320 286q30 30 60 0zM682 636l318 -286l-318 -288q-32 -30 -62 0q-32 32 0 62l248 226l-248 224q-32 30 0 62q30 30 62 0z" />
    <glyph glyph-name="code-outline" unicode="&#xe863;" horiz-adv-x="1189" 
d="M378 38q-65 0 -112 47l-266 266l266 267q44 44 111 44t111 -44q46 -46 46 -110t-46 -111l-45 -46l45 -45q46 -46 46 -111t-46 -110t-110 -47zM148 351l192 -193q15 -15 37 -15t37 15t15 37t-15 37l-119 119l119 120q15 15 15 37t-15 37t-37 15t-37 -15zM811 38
q-63 0 -110 47t-46 110t46 111l47 45l-47 46q-46 46 -46 111t46 110q44 44 111 44t111 -44l266 -267l-266 -266q-47 -47 -112 -47zM811 560q-21 0 -36 -15t-15 -37t15 -37l119 -120l-119 -119q-15 -15 -15 -37t15 -37t37 -15t37 15l192 193l-192 194q-15 15 -38 15z" />
    <glyph glyph-name="code-3" unicode="&#xe864;" horiz-adv-x="1500" 
d="M1000 849l500 -500l-500 -500l-154 154l346 346l-346 346zM308 349l346 -346l-154 -154l-500 500l500 500l154 -154z" />
    <glyph glyph-name="link" unicode="&#xe865;" horiz-adv-x="800" 
d="M294 116q14 14 34 14t36 -14q32 -34 0 -70l-42 -40q-56 -56 -133 -56t-133 56t-56 133t56 133l148 148q70 68 144 77t128 -43q16 -16 16 -36t-16 -36q-36 -32 -70 0q-50 48 -132 -34l-148 -146q-26 -26 -26 -64t26 -63t63 -25t63 26zM744 690q56 -56 56 -133t-56 -133
l-158 -158q-74 -72 -150 -72q-62 0 -112 50q-14 14 -14 34t14 35t35 15t35 -14q50 -48 122 24l158 156q28 28 28 65t-28 61q-24 26 -56 31t-60 -21l-50 -50q-16 -14 -36 -14t-34 14q-34 34 0 70l50 50q54 54 127 51t129 -61z" />
    <glyph glyph-name="home" unicode="&#xe866;" horiz-adv-x="900" 
d="M888 336q16 -16 11 -27t-27 -11h-84v-310q0 -14 -1 -21t-8 -13t-23 -6h-204v310h-204v-310h-194q-28 0 -35 10t-7 30v310h-84q-22 0 -27 11t11 27l400 402q16 16 38 16t38 -16z" />
    <glyph glyph-name="trash" unicode="&#xe867;" horiz-adv-x="824" 
d="M0 633v141h289v76h246v-76h289v-141h-824zM43 -150v676h738v-676h-738z" />
    <glyph glyph-name="back" unicode="&#xe868;" horiz-adv-x="850" 
d="M750 540q40 0 70 -29t30 -71v-290q0 -40 -30 -70t-70 -30h-690v140h650v210h-500v-110l-210 180l210 180v-110h540z" />
    <glyph glyph-name="minus-squared" unicode="&#xe869;" horiz-adv-x="800" 
d="M700 750q42 0 71 -29t29 -71v-600q0 -40 -29 -70t-71 -30h-600q-40 0 -70 30t-30 70v600q0 42 30 71t70 29h600zM650 300v100h-500v-100h500z" />
    <glyph glyph-name="edit-alt" unicode="&#xe86a;" 
d="M0 -150v1000h646l-164 -164h-318v-672h672v319l164 164v-647h-1000zM363 213v118h6q39 2 72 -30q39 -39 39 -88h-117zM414 389l367 367l125 -125l-367 -367zM811 786l64 64l125 -125l-64 -64z" />
    <glyph glyph-name="docs-1" unicode="&#xe86b;" 
d="M946 636q23 0 38 -16t16 -38v-678q0 -23 -16 -38t-38 -16h-535q-23 0 -38 16t-16 38v160h-303q-23 0 -38 16t-16 38v375q0 22 11 49t27 42l228 228q15 16 42 27t49 11h232q23 0 38 -16t16 -38v-183q38 23 71 23h232zM643 517l-167 -167h167v167zM286 731l-167 -167h167
v167zM395 370l176 176v233h-214v-233q0 -22 -15 -38t-38 -15h-233v-357h286v143q0 22 11 49t27 42zM929 -79v643h-215v-232q0 -22 -15 -38t-38 -15h-232v-358h500z" />
    <glyph glyph-name="crown" unicode="&#xe86c;" horiz-adv-x="837" 
d="M419 822q-30 -1 -50 -21t-20 -51t20 -51t50 -20t51.5 20t21.5 51t-21.5 51t-51.5 21zM371 600q-33 -88 -65.5 -121t-35.5 -31q-1 6 -33 83.5t-76 148.5q-16 -39 -38 -64t-58 -36q2 -39 25.5 -130.5t29.5 -159.5h601q5 67 28.5 161.5t26.5 126.5q-30 12 -58 38t-38 64
q-48 -71 -78 -148.5t-31 -83.5q-3 -2 -35.5 31t-65.5 121q-22 -10 -51.5 -10t-47.5 10zM74 822q-31 -1 -52 -21t-21 -51t21 -51t51.5 -20t50 20t19.5 51t-19.5 51t-49.5 21zM121 219v-119h600v119h-600zM765 822q-31 -1 -51 -21t-20 -51t20 -51t51 -20t51 20t20 51t-20 51
t-51 21z" />
    </font>
</defs>
</svg>
